<svg xmlns="http://www.w3.org/2000/svg" width="1600" height="780" viewBox="0 0 1600 780">
<rect width="100%" height="100%" fill="#efe8d8"/>
<rect x="16.0" y="14.0" width="1568.0" height="752.0" rx="16.0" fill="#fbf7ee" stroke="#d4c7b0" stroke-width="1.4"/>
<text x="40.0" y="50.0" fill="#1b1b1b" font-size="24" font-family="Noto Sans Thai, Sarabun, Tahoma, DejaVu Sans, sans-serif" font-weight="700" font-style="normal" text-anchor="start">สองช่วงของวงจรฟอร์เวิร์ด</text>
<text x="40.0" y="74.0" fill="#6b6358" font-size="14" font-family="Noto Sans Thai, Sarabun, Tahoma, DejaVu Sans, sans-serif" font-weight="normal" font-style="normal" text-anchor="start">กระแสกำลัง (เส้นหนา) และกระแสมากเนไทซิ่ง/รีเซ็ต (เส้นประ)</text>
<rect x="28.0" y="96.0" width="740.0" height="640.0" rx="14.0" fill="#fffdf8" stroke="#d7ccba" stroke-width="1.2"/>
<text x="52.0" y="128.0" fill="#9a2f22" font-size="18" font-family="Noto Sans Thai, Sarabun, Tahoma, DejaVu Sans, sans-serif" font-weight="700" font-style="normal" text-anchor="start">ช่วงที่ 1 — Q1 เปิด  (0 &lt; t &lt; DTs)</text>
<text x="52.0" y="150.0" fill="#6b6358" font-size="13" font-family="Noto Sans Thai, Sarabun, Tahoma, DejaVu Sans, sans-serif" font-weight="normal" font-style="normal" text-anchor="start">ส่งพลังงานไปทุติยภูมิ</text>
<line x1="78.0" y1="200.0" x2="328.0" y2="200.0" stroke="#9a2f22" stroke-width="2.2" stroke-linecap="round" opacity="1.0"/>
<line x1="78.0" y1="620.0" x2="408.0" y2="620.0" stroke="#1b1b1b" stroke-width="1.6" stroke-linecap="round" opacity="1.0"/>
<text x="86.0" y="190.0" fill="#9a2f22" font-size="12" font-family="Noto Sans Thai, Sarabun, Tahoma, DejaVu Sans, sans-serif" font-weight="700" font-style="normal" text-anchor="start">Vin+</text>
<line x1="108.0" y1="620.0" x2="108.0" y2="628.0" stroke="#1b1b1b" stroke-width="1.7" stroke-linecap="round" opacity="1.0"/>
<line x1="96.0" y1="628.0" x2="120.0" y2="628.0" stroke="#1b1b1b" stroke-width="2.2" stroke-linecap="round" opacity="1.0"/>
<line x1="101.0" y1="633.0" x2="115.0" y2="633.0" stroke="#1b1b1b" stroke-width="1.8" stroke-linecap="round" opacity="1.0"/>
<line x1="105.0" y1="638.0" x2="111.0" y2="638.0" stroke="#1b1b1b" stroke-width="1.5" stroke-linecap="round" opacity="1.0"/>
<line x1="352.0" y1="210.0" x2="352.0" y2="560.0" stroke="#4a4338" stroke-width="3" stroke-linecap="round" opacity="1.0"/>
<line x1="360.0" y1="210.0" x2="360.0" y2="560.0" stroke="#4a4338" stroke-width="3" stroke-linecap="round" opacity="1.0"/>
<path d="M 328.0 220.0 c -16.0 0 -16.0 20.0 0 20.0 c -16.0 0 -16.0 20.0 0 20.0 c -16.0 0 -16.0 20.0 0 20.0 c -16.0 0 -16.0 20.0 0 20.0" fill="none" stroke="#9a2f22" stroke-width="1.9" stroke-linecap="round" stroke-linejoin="round"/>
<path d="M 328.0 400.0 c -16.0 0 -16.0 30.0 0 30.0 c -16.0 0 -16.0 30.0 0 30.0 c -16.0 0 -16.0 30.0 0 30.0 c -16.0 0 -16.0 30.0 0 30.0" fill="none" stroke="#1b1b1b" stroke-width="1.9" stroke-linecap="round" stroke-linejoin="round"/>
<path d="M 384.0 230.0 c 16.0 0 16.0 45.0 0 45.0 c 16.0 0 16.0 45.0 0 45.0 c 16.0 0 16.0 45.0 0 45.0 c 16.0 0 16.0 45.0 0 45.0 c 16.0 0 16.0 45.0 0 45.0 c 16.0 0 16.0 45.0 0 45.0" fill="none" stroke="#1e4d7b" stroke-width="1.9" stroke-linecap="round" stroke-linejoin="round"/>
<circle cx="308.0" cy="226.0" r="4.2" fill="#9a2f22" stroke="none" stroke-width="1.0"/>
<circle cx="308.0" cy="512.0" r="4.2" fill="#9a2f22" stroke="none" stroke-width="1.0"/>
<circle cx="404.0" cy="238.0" r="4.2" fill="#1e4d7b" stroke="none" stroke-width="1.0"/>
<line x1="328.0" y1="300.0" x2="208.0" y2="300.0" stroke="#9a2f22" stroke-width="2" stroke-linecap="round" opacity="1.0"/>
<line x1="208.0" y1="300.0" x2="208.0" y2="430.0" stroke="#9a2f22" stroke-width="2" stroke-linecap="round" opacity="1.0"/>
<line x1="208.0" y1="430.0" x2="208.0" y2="470.0" stroke="#9a2f22" stroke-width="2.4" stroke-linecap="round" opacity="1.0"/>
<line x1="196.0" y1="470.0" x2="220.0" y2="458.0" stroke="#9a2f22" stroke-width="2.6" stroke-linecap="round" opacity="1.0"/>
<line x1="208.0" y1="490.0" x2="208.0" y2="620.0" stroke="#9a2f22" stroke-width="2" stroke-linecap="round" opacity="1.0"/>
<text x="224.0" y="456.0" fill="#1b1b1b" font-size="13" font-family="Noto Sans Thai, Sarabun, Tahoma, DejaVu Sans, sans-serif" font-weight="700" font-style="normal" text-anchor="start">Q1 ON</text>
<line x1="328.0" y1="400.0" x2="168.0" y2="400.0" stroke="#1b1b1b" stroke-width="1.7" stroke-linecap="round" opacity="1.0"/>
<line x1="168.0" y1="400.0" x2="155.0" y2="400.0" stroke="#1b1b1b" stroke-width="1.7" stroke-linecap="round" opacity="1.0"/>
<polygon points="155.0,390.0 135.0,400.0 155.0,410.0" fill="#fde8d8" stroke="#1b1b1b" stroke-width="1.6" stroke-linejoin="round"/>
<line x1="135.0" y1="389.0" x2="135.0" y2="411.0" stroke="#1b1b1b" stroke-width="2.2" stroke-linecap="round" opacity="1.0"/>
<line x1="135.0" y1="400.0" x2="118.0" y2="400.0" stroke="#1b1b1b" stroke-width="1.7" stroke-linecap="round" opacity="1.0"/>
<line x1="118.0" y1="400.0" x2="118.0" y2="200.0" stroke="#1b1b1b" stroke-width="1.4" stroke-linecap="round" opacity="1.0"/>
<text x="128.0" y="384.0" fill="#1b1b1b" font-size="12" font-family="Noto Sans Thai, Sarabun, Tahoma, DejaVu Sans, sans-serif" font-weight="700" font-style="normal" text-anchor="start">Dr</text>
<line x1="384.0" y1="230.0" x2="384.0" y2="210.0" stroke="#1e4d7b" stroke-width="2" stroke-linecap="round" opacity="1.0"/>
<line x1="384.0" y1="210.0" x2="588.0" y2="210.0" stroke="#1e4d7b" stroke-width="2" stroke-linecap="round" opacity="1.0"/>
<line x1="458.0" y1="210.0" x2="476.0" y2="210.0" stroke="#1e4d7b" stroke-width="1.7" stroke-linecap="round" opacity="1.0"/>
<polygon points="476.0,200.0 496.0,210.0 476.0,220.0" fill="#dceaf5" stroke="#1e4d7b" stroke-width="1.6" stroke-linejoin="round"/>
<line x1="496.0" y1="199.0" x2="496.0" y2="221.0" stroke="#1e4d7b" stroke-width="2.2" stroke-linecap="round" opacity="1.0"/>
<line x1="496.0" y1="210.0" x2="518.0" y2="210.0" stroke="#1e4d7b" stroke-width="1.7" stroke-linecap="round" opacity="1.0"/>
<text x="476.0" y="194.0" fill="#1e4d7b" font-size="12" font-family="Noto Sans Thai, Sarabun, Tahoma, DejaVu Sans, sans-serif" font-weight="700" font-style="normal" text-anchor="start">D1</text>
<line x1="548.0" y1="210.0" x2="570.0" y2="210.0" stroke="#1e4d7b" stroke-width="1.7" stroke-linecap="round" opacity="1.0"/>
<path d="M 570.0 210.0 c 0 -14 14 -14 14 0 c 0 -14 14 -14 14 0 c 0 -14 14 -14 14 0 c 0 -14 14 -14 14 0" fill="none" stroke="#1e4d7b" stroke-width="1.8" stroke-linecap="round" stroke-linejoin="round"/>
<line x1="626.0" y1="210.0" x2="648.0" y2="210.0" stroke="#1e4d7b" stroke-width="1.7" stroke-linecap="round" opacity="1.0"/>
<line x1="648.0" y1="210.0" x2="708.0" y2="210.0" stroke="#1e4d7b" stroke-width="2" stroke-linecap="round" opacity="1.0"/>
<text x="718.0" y="216.0" fill="#2a6b48" font-size="14" font-family="Noto Sans Thai, Sarabun, Tahoma, DejaVu Sans, sans-serif" font-weight="700" font-style="normal" text-anchor="start">Vo</text>
<line x1="668.0" y1="210.0" x2="668.0" y2="407.0" stroke="#1e4d7b" stroke-width="1.7" stroke-linecap="round" opacity="1.0"/>
<line x1="654.0" y1="407.0" x2="682.0" y2="407.0" stroke="#1e4d7b" stroke-width="2.4" stroke-linecap="round" opacity="1.0"/>
<line x1="654.0" y1="423.0" x2="682.0" y2="423.0" stroke="#1e4d7b" stroke-width="2.4" stroke-linecap="round" opacity="1.0"/>
<line x1="668.0" y1="423.0" x2="668.0" y2="620.0" stroke="#1e4d7b" stroke-width="1.7" stroke-linecap="round" opacity="1.0"/>
<text x="684.0" y="411.0" fill="#9a2f22" font-size="13" font-family="Noto Sans Thai, Sarabun, Tahoma, DejaVu Sans, sans-serif" font-weight="700" font-style="normal" text-anchor="start">+</text>
<line x1="708.0" y1="210.0" x2="708.0" y2="401.0" stroke="#1e4d7b" stroke-width="1.7" stroke-linecap="round" opacity="1.0"/>
<polyline points="708.0,401.0 700.0,403.3 716.0,408.0 700.0,412.7 716.0,417.3 700.0,422.0 716.0,426.7 708.0,429.0" fill="none" stroke="#1e4d7b" stroke-width="1.7" stroke-linecap="round" stroke-linejoin="round"/>
<line x1="708.0" y1="429.0" x2="708.0" y2="620.0" stroke="#1e4d7b" stroke-width="1.7" stroke-linecap="round" opacity="1.0"/>
<line x1="548.0" y1="210.0" x2="548.0" y2="343.0" stroke="#1e4d7b" stroke-width="1.7" stroke-linecap="round" opacity="1.0"/>
<polygon points="538.0,343.0 558.0,343.0 548.0,363.0" fill="#dceaf5" stroke="#1e4d7b" stroke-width="1.6" stroke-linejoin="round"/>
<line x1="537.0" y1="363.0" x2="559.0" y2="363.0" stroke="#1e4d7b" stroke-width="2.2" stroke-linecap="round" opacity="1.0"/>
<line x1="548.0" y1="363.0" x2="548.0" y2="500.0" stroke="#1e4d7b" stroke-width="1.7" stroke-linecap="round" opacity="1.0"/>
<text x="562.0" y="360.0" fill="#1e4d7b" font-size="12" font-family="Noto Sans Thai, Sarabun, Tahoma, DejaVu Sans, sans-serif" font-weight="700" font-style="normal" text-anchor="start">D2</text>
<line x1="384.0" y1="500.0" x2="384.0" y2="620.0" stroke="#1e4d7b" stroke-width="1.7" stroke-linecap="round" opacity="1.0"/>
<line x1="384.0" y1="620.0" x2="728.0" y2="620.0" stroke="#1e4d7b" stroke-width="1.6" stroke-linecap="round" opacity="1.0"/>
<polyline points="88.0,208.0 322.0,208.0 322.0,296.0 216.0,296.0 216.0,612.0" fill="none" stroke="#9a2f22" stroke-width="3.2" stroke-linecap="round" stroke-linejoin="round"/>
<polyline points="394.0,236.0 394.0,218.0 546.0,218.0 648.0,218.0 708.0,400.0" fill="none" stroke="#1e4d7b" stroke-width="3.0" stroke-linecap="round" stroke-linejoin="round"/>
<text x="52.0" y="700.0" fill="#9a2f22" font-size="13" font-family="Noto Sans Thai, Sarabun, Tahoma, DejaVu Sans, sans-serif" font-weight="normal" font-style="normal" text-anchor="start">พลังงานไหลผ่านหม้อแปลงไป D1 และ L   ·   D2 ตัด   ·   ฟลักซ์ในแกนเพิ่มขึ้น</text>
<rect x="820.0" y="96.0" width="740.0" height="640.0" rx="14.0" fill="#fffdf8" stroke="#d7ccba" stroke-width="1.2"/>
<text x="844.0" y="128.0" fill="#1e4d7b" font-size="18" font-family="Noto Sans Thai, Sarabun, Tahoma, DejaVu Sans, sans-serif" font-weight="700" font-style="normal" text-anchor="start">ช่วงที่ 2 — Q1 ปิด  (DTs &lt; t &lt; Ts)</text>
<text x="844.0" y="150.0" fill="#6b6358" font-size="13" font-family="Noto Sans Thai, Sarabun, Tahoma, DejaVu Sans, sans-serif" font-weight="normal" font-style="normal" text-anchor="start">ฟรีวีล + รีเซ็ตฟลักซ์</text>
<line x1="870.0" y1="200.0" x2="1120.0" y2="200.0" stroke="#1b1b1b" stroke-width="1.4" stroke-linecap="round" opacity="1.0"/>
<line x1="870.0" y1="620.0" x2="1200.0" y2="620.0" stroke="#1b1b1b" stroke-width="1.6" stroke-linecap="round" opacity="1.0"/>
<text x="878.0" y="190.0" fill="#9a2f22" font-size="12" font-family="Noto Sans Thai, Sarabun, Tahoma, DejaVu Sans, sans-serif" font-weight="700" font-style="normal" text-anchor="start">Vin+</text>
<line x1="900.0" y1="620.0" x2="900.0" y2="628.0" stroke="#1b1b1b" stroke-width="1.7" stroke-linecap="round" opacity="1.0"/>
<line x1="888.0" y1="628.0" x2="912.0" y2="628.0" stroke="#1b1b1b" stroke-width="2.2" stroke-linecap="round" opacity="1.0"/>
<line x1="893.0" y1="633.0" x2="907.0" y2="633.0" stroke="#1b1b1b" stroke-width="1.8" stroke-linecap="round" opacity="1.0"/>
<line x1="897.0" y1="638.0" x2="903.0" y2="638.0" stroke="#1b1b1b" stroke-width="1.5" stroke-linecap="round" opacity="1.0"/>
<line x1="1144.0" y1="210.0" x2="1144.0" y2="560.0" stroke="#4a4338" stroke-width="3" stroke-linecap="round" opacity="1.0"/>
<line x1="1152.0" y1="210.0" x2="1152.0" y2="560.0" stroke="#4a4338" stroke-width="3" stroke-linecap="round" opacity="1.0"/>
<path d="M 1120.0 220.0 c -16.0 0 -16.0 20.0 0 20.0 c -16.0 0 -16.0 20.0 0 20.0 c -16.0 0 -16.0 20.0 0 20.0 c -16.0 0 -16.0 20.0 0 20.0" fill="none" stroke="#1b1b1b" stroke-width="1.9" stroke-linecap="round" stroke-linejoin="round"/>
<path d="M 1120.0 400.0 c -16.0 0 -16.0 30.0 0 30.0 c -16.0 0 -16.0 30.0 0 30.0 c -16.0 0 -16.0 30.0 0 30.0 c -16.0 0 -16.0 30.0 0 30.0" fill="none" stroke="#9a2f22" stroke-width="1.9" stroke-linecap="round" stroke-linejoin="round"/>
<path d="M 1176.0 230.0 c 16.0 0 16.0 45.0 0 45.0 c 16.0 0 16.0 45.0 0 45.0 c 16.0 0 16.0 45.0 0 45.0 c 16.0 0 16.0 45.0 0 45.0 c 16.0 0 16.0 45.0 0 45.0 c 16.0 0 16.0 45.0 0 45.0" fill="none" stroke="#1e4d7b" stroke-width="1.9" stroke-linecap="round" stroke-linejoin="round"/>
<circle cx="1100.0" cy="226.0" r="4.2" fill="#9a2f22" stroke="none" stroke-width="1.0"/>
<circle cx="1100.0" cy="512.0" r="4.2" fill="#9a2f22" stroke="none" stroke-width="1.0"/>
<circle cx="1196.0" cy="238.0" r="4.2" fill="#1e4d7b" stroke="none" stroke-width="1.0"/>
<line x1="1120.0" y1="300.0" x2="1000.0" y2="300.0" stroke="#1b1b1b" stroke-width="1.4" stroke-linecap="round" opacity="1.0"/>
<line x1="1000.0" y1="300.0" x2="1000.0" y2="430.0" stroke="#1b1b1b" stroke-width="1.4" stroke-linecap="round" opacity="1.0"/>
<line x1="986.0" y1="448.0" x2="1010.0" y2="430.0" stroke="#1b1b1b" stroke-width="2.2" stroke-linecap="round" opacity="1.0"/>
<line x1="1000.0" y1="430.0" x2="1000.0" y2="444.0" stroke="#1b1b1b" stroke-width="1.7" stroke-linecap="round" opacity="1.0"/>
<line x1="1000.0" y1="468.0" x2="1000.0" y2="490.0" stroke="#1b1b1b" stroke-width="1.7" stroke-linecap="round" opacity="1.0"/>
<line x1="1000.0" y1="490.0" x2="1000.0" y2="620.0" stroke="#1b1b1b" stroke-width="1.4" stroke-linecap="round" opacity="1.0"/>
<text x="1016.0" y="456.0" fill="#1b1b1b" font-size="13" font-family="Noto Sans Thai, Sarabun, Tahoma, DejaVu Sans, sans-serif" font-weight="700" font-style="normal" text-anchor="start">Q1 OFF</text>
<line x1="1120.0" y1="400.0" x2="960.0" y2="400.0" stroke="#1b1b1b" stroke-width="1.7" stroke-linecap="round" opacity="1.0"/>
<line x1="960.0" y1="400.0" x2="947.0" y2="400.0" stroke="#1b1b1b" stroke-width="1.7" stroke-linecap="round" opacity="1.0"/>
<polygon points="947.0,390.0 927.0,400.0 947.0,410.0" fill="#fde8d8" stroke="#1b1b1b" stroke-width="1.6" stroke-linejoin="round"/>
<line x1="927.0" y1="389.0" x2="927.0" y2="411.0" stroke="#1b1b1b" stroke-width="2.2" stroke-linecap="round" opacity="1.0"/>
<line x1="927.0" y1="400.0" x2="910.0" y2="400.0" stroke="#1b1b1b" stroke-width="1.7" stroke-linecap="round" opacity="1.0"/>
<line x1="910.0" y1="400.0" x2="910.0" y2="200.0" stroke="#9a2f22" stroke-width="2.4" stroke-linecap="round" opacity="1.0"/>
<text x="920.0" y="384.0" fill="#1b1b1b" font-size="12" font-family="Noto Sans Thai, Sarabun, Tahoma, DejaVu Sans, sans-serif" font-weight="700" font-style="normal" text-anchor="start">Dr</text>
<polyline points="1112.0,510.0 1112.0,410.0 920.0,410.0" fill="none" stroke="#9a2f22" stroke-width="2.4" stroke-linecap="round" stroke-linejoin="round" stroke-dasharray="6 4"/>
<line x1="1176.0" y1="230.0" x2="1176.0" y2="210.0" stroke="#1e4d7b" stroke-width="1.4" stroke-linecap="round" opacity="1.0"/>
<line x1="1176.0" y1="210.0" x2="1380.0" y2="210.0" stroke="#1e4d7b" stroke-width="1.4" stroke-linecap="round" opacity="1.0"/>
<line x1="1250.0" y1="210.0" x2="1268.0" y2="210.0" stroke="#1e4d7b" stroke-width="1.7" stroke-linecap="round" opacity="1.0"/>
<polygon points="1268.0,200.0 1288.0,210.0 1268.0,220.0" fill="#dceaf5" stroke="#1e4d7b" stroke-width="1.6" stroke-linejoin="round"/>
<line x1="1288.0" y1="199.0" x2="1288.0" y2="221.0" stroke="#1e4d7b" stroke-width="2.2" stroke-linecap="round" opacity="1.0"/>
<line x1="1288.0" y1="210.0" x2="1310.0" y2="210.0" stroke="#1e4d7b" stroke-width="1.7" stroke-linecap="round" opacity="1.0"/>
<text x="1268.0" y="194.0" fill="#1e4d7b" font-size="12" font-family="Noto Sans Thai, Sarabun, Tahoma, DejaVu Sans, sans-serif" font-weight="700" font-style="normal" text-anchor="start">D1</text>
<line x1="1340.0" y1="210.0" x2="1362.0" y2="210.0" stroke="#1e4d7b" stroke-width="1.7" stroke-linecap="round" opacity="1.0"/>
<path d="M 1362.0 210.0 c 0 -14 14 -14 14 0 c 0 -14 14 -14 14 0 c 0 -14 14 -14 14 0 c 0 -14 14 -14 14 0" fill="none" stroke="#1e4d7b" stroke-width="1.8" stroke-linecap="round" stroke-linejoin="round"/>
<line x1="1418.0" y1="210.0" x2="1440.0" y2="210.0" stroke="#1e4d7b" stroke-width="1.7" stroke-linecap="round" opacity="1.0"/>
<line x1="1440.0" y1="210.0" x2="1500.0" y2="210.0" stroke="#1e4d7b" stroke-width="2" stroke-linecap="round" opacity="1.0"/>
<text x="1510.0" y="216.0" fill="#2a6b48" font-size="14" font-family="Noto Sans Thai, Sarabun, Tahoma, DejaVu Sans, sans-serif" font-weight="700" font-style="normal" text-anchor="start">Vo</text>
<line x1="1460.0" y1="210.0" x2="1460.0" y2="407.0" stroke="#1e4d7b" stroke-width="1.7" stroke-linecap="round" opacity="1.0"/>
<line x1="1446.0" y1="407.0" x2="1474.0" y2="407.0" stroke="#1e4d7b" stroke-width="2.4" stroke-linecap="round" opacity="1.0"/>
<line x1="1446.0" y1="423.0" x2="1474.0" y2="423.0" stroke="#1e4d7b" stroke-width="2.4" stroke-linecap="round" opacity="1.0"/>
<line x1="1460.0" y1="423.0" x2="1460.0" y2="620.0" stroke="#1e4d7b" stroke-width="1.7" stroke-linecap="round" opacity="1.0"/>
<text x="1476.0" y="411.0" fill="#9a2f22" font-size="13" font-family="Noto Sans Thai, Sarabun, Tahoma, DejaVu Sans, sans-serif" font-weight="700" font-style="normal" text-anchor="start">+</text>
<line x1="1500.0" y1="210.0" x2="1500.0" y2="401.0" stroke="#1e4d7b" stroke-width="1.7" stroke-linecap="round" opacity="1.0"/>
<polyline points="1500.0,401.0 1492.0,403.3 1508.0,408.0 1492.0,412.7 1508.0,417.3 1492.0,422.0 1508.0,426.7 1500.0,429.0" fill="none" stroke="#1e4d7b" stroke-width="1.7" stroke-linecap="round" stroke-linejoin="round"/>
<line x1="1500.0" y1="429.0" x2="1500.0" y2="620.0" stroke="#1e4d7b" stroke-width="1.7" stroke-linecap="round" opacity="1.0"/>
<line x1="1340.0" y1="210.0" x2="1340.0" y2="343.0" stroke="#1e4d7b" stroke-width="1.7" stroke-linecap="round" opacity="1.0"/>
<polygon points="1330.0,343.0 1350.0,343.0 1340.0,363.0" fill="#dceaf5" stroke="#1e4d7b" stroke-width="1.6" stroke-linejoin="round"/>
<line x1="1329.0" y1="363.0" x2="1351.0" y2="363.0" stroke="#1e4d7b" stroke-width="2.2" stroke-linecap="round" opacity="1.0"/>
<line x1="1340.0" y1="363.0" x2="1340.0" y2="500.0" stroke="#1e4d7b" stroke-width="1.7" stroke-linecap="round" opacity="1.0"/>
<text x="1354.0" y="360.0" fill="#1e4d7b" font-size="12" font-family="Noto Sans Thai, Sarabun, Tahoma, DejaVu Sans, sans-serif" font-weight="700" font-style="normal" text-anchor="start">D2</text>
<line x1="1176.0" y1="500.0" x2="1176.0" y2="620.0" stroke="#1e4d7b" stroke-width="1.7" stroke-linecap="round" opacity="1.0"/>
<line x1="1176.0" y1="620.0" x2="1520.0" y2="620.0" stroke="#1e4d7b" stroke-width="1.6" stroke-linecap="round" opacity="1.0"/>
<polyline points="1340.0,500.0 1340.0,614.0 1500.0,614.0 1500.0,400.0" fill="none" stroke="#2a6b48" stroke-width="3.0" stroke-linecap="round" stroke-linejoin="round"/>
<polyline points="1340.0,218.0 1440.0,218.0 1500.0,400.0" fill="none" stroke="#2a6b48" stroke-width="2.4" stroke-linecap="round" stroke-linejoin="round"/>
<text x="844.0" y="700.0" fill="#1e4d7b" font-size="13" font-family="Noto Sans Thai, Sarabun, Tahoma, DejaVu Sans, sans-serif" font-weight="normal" font-style="normal" text-anchor="start">D1 ตัด · D2 ฟรีวีลรักษากระแส L · Nr+Dr คืนพลังงานแมกเนไทซิ่งเข้าบัส Vin</text>
</svg>
