<svg xmlns="http://www.w3.org/2000/svg" width="1100" height="980" viewBox="0 0 1100 980">
<rect width="100%" height="100%" fill="#1a2330"/>
<rect x="18.0" y="16.0" width="1064.0" height="948.0" rx="14.0" fill="#0f1824" stroke="#3d5a73" stroke-width="1.2"/>
<text x="40.0" y="48.0" fill="#e8eef4" font-size="22" font-family="Noto Sans Thai, Sarabun, Tahoma, DejaVu Sans, sans-serif" font-weight="700" font-style="normal" text-anchor="start">240 V  ·  48:21  ·  สัญญาณ Vout / Iout</text>
<text x="40.0" y="72.0" fill="#9bb0c2" font-size="13" font-family="Noto Sans Thai, Sarabun, Tahoma, DejaVu Sans, sans-serif" font-weight="normal" font-style="normal" text-anchor="start">จุดทำงาน CC  340 Vbus  n=0.438  D≈0.40  54.4 V / 5 A   (CV 58 V รัด Dmax ที่หุบบัสถ้า Cin 220 µF)</text>
<rect x="80.0" y="110.0" width="980.0" height="175.0" rx="6.0" fill="#0b121c" stroke="#2c4458" stroke-width="1.0"/>
<text x="80.0" y="102.0" fill="#d5e4f0" font-size="13" font-family="Noto Sans Thai, Sarabun, Tahoma, DejaVu Sans, sans-serif" font-weight="700" font-style="normal" text-anchor="start">5 ms/div   duty คงที่ (ยังมี 100 Hz จากบัส)   CH1 50 V/div  CH2 2 A/div</text>
<text x="1060.0" y="102.0" fill="#8fa3b5" font-size="12" font-family="Noto Sans Thai, Sarabun, Tahoma, DejaVu Sans, sans-serif" font-weight="normal" font-style="normal" text-anchor="end">V≈54.3 V   I mean 2.44 A   I pp 3.35 A</text>
<polyline points="80.0,204.0 81.0,204.0 82.0,204.0 82.9,204.0 83.9,204.0 84.9,204.0 85.9,204.0 86.9,204.0 87.8,204.0 88.8,204.0 89.8,204.0 90.8,204.0 91.8,204.0 92.7,204.0 93.7,204.0 94.7,204.0 95.7,204.0 96.7,204.0 97.6,204.0 98.6,204.0 99.6,204.0 100.6,204.0 101.6,204.0 102.5,204.0 103.5,204.0 104.5,204.0 105.5,204.0 106.5,204.0 107.4,204.0 108.4,204.0 109.4,204.0 110.4,204.0 111.4,204.0 112.3,204.0 113.3,204.0 114.3,204.0 115.3,204.0 116.3,204.0 117.2,204.0 118.2,204.0 119.2,204.0 120.2,204.0 121.2,204.0 122.1,204.0 123.1,204.1 124.1,204.1 125.1,204.1 126.1,204.1 127.0,204.1 128.0,204.1 129.0,204.1 130.0,204.1 131.0,204.1 131.9,204.1 132.9,204.1 133.9,204.1 134.9,204.1 135.9,204.1 136.8,204.1 137.8,204.1 138.8,204.1 139.8,204.1 140.8,204.1 141.7,204.1 142.7,204.1 143.7,204.1 144.7,204.1 145.7,204.1 146.6,204.1 147.6,204.1 148.6,204.1 149.6,204.1 150.6,204.1 151.5,204.1 152.5,204.1 153.5,204.1 154.5,204.1 155.5,204.1 156.4,204.1 157.4,204.1 158.4,204.1 159.4,204.1 160.4,204.1 161.3,204.1 162.3,204.1 163.3,204.1 164.3,204.1 165.3,204.1 166.2,204.1 167.2,204.1 168.2,204.1 169.2,204.1 170.2,204.1 171.1,204.1 172.1,204.1 173.1,204.1 174.1,204.1 175.1,204.1 176.0,204.1 177.0,204.1 178.0,204.1 179.0,204.1 180.0,204.1 180.9,204.1 181.9,204.1 182.9,204.1 183.9,204.1 184.9,204.1 185.8,204.0 186.8,204.0 187.8,204.0 188.8,204.0 189.8,204.0 190.7,204.0 191.7,204.0 192.7,204.0 193.7,204.0 194.7,204.0 195.6,204.0 196.6,204.0 197.6,203.9 198.6,203.9 199.6,203.9 200.5,203.9 201.5,203.9 202.5,203.9 203.5,203.9 204.5,203.9 205.4,203.9 206.4,203.9 207.4,203.9 208.4,203.9 209.4,203.9 210.3,203.9 211.3,203.9 212.3,203.9 213.3,203.9 214.3,203.9 215.2,203.9 216.2,203.9 217.2,203.9 218.2,203.9 219.2,203.9 220.1,203.9 221.1,203.9 222.1,203.9 223.1,203.9 224.1,203.9 225.0,203.9 226.0,203.9 227.0,203.9 228.0,203.9 229.0,203.9 229.9,203.9 230.9,203.9 231.9,203.9 232.9,203.9 233.9,203.9 234.8,203.9 235.8,203.9 236.8,203.9 237.8,203.9 238.8,203.9 239.7,203.9 240.7,203.9 241.7,203.9 242.7,203.9 243.7,203.9 244.6,203.9 245.6,203.9 246.6,203.9 247.6,203.9 248.6,203.9 249.5,203.9 250.5,203.9 251.5,203.9 252.5,203.9 253.5,203.9 254.4,203.9 255.4,203.9 256.4,203.9 257.4,203.9 258.4,203.9 259.3,203.9 260.3,203.9 261.3,203.9 262.3,203.9 263.3,203.9 264.2,203.9 265.2,203.9 266.2,203.9 267.2,203.9 268.2,203.9 269.1,203.9 270.1,203.9 271.1,203.9 272.1,203.9 273.1,203.9 274.0,203.9 275.0,203.9 276.0,203.9 277.0,203.9 278.0,203.9 278.9,203.9 279.9,203.9 280.9,203.9 281.9,203.9 282.9,203.9 283.8,203.9 284.8,203.9 285.8,203.9 286.8,203.9 287.8,203.9 288.7,203.9 289.7,204.0 290.7,204.0 291.7,204.0 292.7,204.0 293.6,204.0 294.6,204.0 295.6,204.0 296.6,204.0 297.6,204.0 298.5,204.0 299.5,204.0 300.5,204.0 301.5,204.0 302.5,204.0 303.4,204.0 304.4,204.0 305.4,204.0 306.4,204.0 307.4,204.0 308.3,204.0 309.3,204.0 310.3,204.0 311.3,204.0 312.3,204.0 313.2,204.0 314.2,204.0 315.2,204.0 316.2,204.0 317.2,204.0 318.1,204.0 319.1,204.0 320.1,204.0 321.1,204.0 322.1,204.0 323.0,204.0 324.0,204.0 325.0,204.0 326.0,204.0 327.0,204.0 327.9,204.0 328.9,204.0 329.9,204.0 330.9,204.0 331.9,204.0 332.8,204.0 333.8,204.0 334.8,204.0 335.8,204.0 336.8,204.0 337.7,204.0 338.7,204.0 339.7,204.0 340.7,204.0 341.7,204.0 342.6,204.0 343.6,204.0 344.6,204.0 345.6,204.0 346.6,204.0 347.5,204.0 348.5,204.0 349.5,204.0 350.5,204.0 351.5,204.0 352.4,204.0 353.4,204.0 354.4,204.0 355.4,204.0 356.4,204.0 357.3,204.0 358.3,204.0 359.3,204.0 360.3,204.0 361.3,204.0 362.2,204.0 363.2,204.0 364.2,204.0 365.2,204.0 366.2,204.0 367.1,204.0 368.1,204.1 369.1,204.1 370.1,204.1 371.1,204.1 372.0,204.1 373.0,204.1 374.0,204.1 375.0,204.1 376.0,204.1 376.9,204.1 377.9,204.1 378.9,204.1 379.9,204.1 380.9,204.1 381.8,204.1 382.8,204.1 383.8,204.1 384.8,204.1 385.8,204.1 386.7,204.1 387.7,204.1 388.7,204.1 389.7,204.1 390.7,204.1 391.6,204.1 392.6,204.1 393.6,204.1 394.6,204.1 395.6,204.1 396.5,204.1 397.5,204.1 398.5,204.1 399.5,204.1 400.5,204.1 401.4,204.1 402.4,204.1 403.4,204.1 404.4,204.1 405.4,204.1 406.3,204.1 407.3,204.1 408.3,204.1 409.3,204.1 410.3,204.1 411.2,204.1 412.2,204.1 413.2,204.1 414.2,204.1 415.2,204.1 416.1,204.1 417.1,204.1 418.1,204.1 419.1,204.1 420.1,204.1 421.0,204.1 422.0,204.1 423.0,204.1 424.0,204.1 425.0,204.1 425.9,204.1 426.9,204.1 427.9,204.1 428.9,204.1 429.9,204.1 430.8,204.0 431.8,204.0 432.8,204.0 433.8,204.0 434.8,204.0 435.7,204.0 436.7,204.0 437.7,204.0 438.7,204.0 439.7,204.0 440.6,204.0 441.6,204.0 442.6,203.9 443.6,203.9 444.6,203.9 445.5,203.9 446.5,203.9 447.5,203.9 448.5,203.9 449.5,203.9 450.4,203.9 451.4,203.9 452.4,203.9 453.4,203.9 454.4,203.9 455.3,203.9 456.3,203.9 457.3,203.9 458.3,203.9 459.3,203.9 460.2,203.9 461.2,203.9 462.2,203.9 463.2,203.9 464.2,203.9 465.1,203.9 466.1,203.9 467.1,203.9 468.1,203.9 469.1,203.9 470.0,203.9 471.0,203.9 472.0,203.9 473.0,203.9 474.0,203.9 474.9,203.9 475.9,203.9 476.9,203.9 477.9,203.9 478.9,203.9 479.8,203.9 480.8,203.9 481.8,203.9 482.8,203.9 483.8,203.9 484.7,203.9 485.7,203.9 486.7,203.9 487.7,203.9 488.7,203.9 489.6,203.9 490.6,203.9 491.6,203.9 492.6,203.9 493.6,203.9 494.5,203.9 495.5,203.9 496.5,203.9 497.5,203.9 498.5,203.9 499.4,203.9 500.4,203.9 501.4,203.9 502.4,203.9 503.4,203.9 504.3,203.9 505.3,203.9 506.3,203.9 507.3,203.9 508.3,203.9 509.2,203.9 510.2,203.9 511.2,203.9 512.2,203.9 513.2,203.9 514.1,203.9 515.1,203.9 516.1,203.9 517.1,203.9 518.1,203.9 519.0,203.9 520.0,203.9 521.0,203.9 522.0,203.9 523.0,203.9 523.9,203.9 524.9,203.9 525.9,203.9 526.9,203.9 527.9,203.9 528.8,203.9 529.8,203.9 530.8,203.9 531.8,203.9 532.8,203.9 533.7,203.9 534.7,204.0 535.7,204.0 536.7,204.0 537.7,204.0 538.6,204.0 539.6,204.0 540.6,204.0 541.6,204.0 542.6,204.0 543.5,204.0 544.5,204.0 545.5,204.0 546.5,204.0 547.5,204.0 548.4,204.0 549.4,204.0 550.4,204.0 551.4,204.0 552.4,204.0 553.3,204.0 554.3,204.0 555.3,204.0 556.3,204.0 557.3,204.0 558.2,204.0 559.2,204.0 560.2,204.0 561.2,204.0 562.2,204.0 563.1,204.0 564.1,204.0 565.1,204.0 566.1,204.0 567.1,204.0 568.0,204.0 569.0,204.0 570.0,204.0 571.0,204.0 572.0,204.0 572.9,204.0 573.9,204.0 574.9,204.0 575.9,204.0 576.9,204.0 577.8,204.0 578.8,204.0 579.8,204.0 580.8,204.0 581.8,204.0 582.7,204.0 583.7,204.0 584.7,204.0 585.7,204.0 586.7,204.0 587.6,204.0 588.6,204.0 589.6,204.0 590.6,204.0 591.6,204.0 592.5,204.0 593.5,204.0 594.5,204.0 595.5,204.0 596.5,204.0 597.4,204.0 598.4,204.0 599.4,204.0 600.4,204.0 601.4,204.0 602.3,204.0 603.3,204.0 604.3,204.0 605.3,204.0 606.3,204.0 607.2,204.0 608.2,204.0 609.2,204.0 610.2,204.0 611.2,204.0 612.1,204.0 613.1,204.1 614.1,204.1 615.1,204.1 616.1,204.1 617.0,204.1 618.0,204.1 619.0,204.1 620.0,204.1 621.0,204.1 621.9,204.1 622.9,204.1 623.9,204.1 624.9,204.1 625.9,204.1 626.8,204.1 627.8,204.1 628.8,204.1 629.8,204.1 630.8,204.1 631.7,204.1 632.7,204.1 633.7,204.1 634.7,204.1 635.7,204.1 636.6,204.1 637.6,204.1 638.6,204.1 639.6,204.1 640.6,204.1 641.5,204.1 642.5,204.1 643.5,204.1 644.5,204.1 645.5,204.1 646.4,204.1 647.4,204.1 648.4,204.1 649.4,204.1 650.4,204.1 651.3,204.1 652.3,204.1 653.3,204.1 654.3,204.1 655.3,204.1 656.2,204.1 657.2,204.1 658.2,204.1 659.2,204.1 660.2,204.1 661.1,204.1 662.1,204.1 663.1,204.1 664.1,204.1 665.1,204.1 666.0,204.1 667.0,204.1 668.0,204.1 669.0,204.1 670.0,204.1 670.9,204.1 671.9,204.1 672.9,204.1 673.9,204.1 674.9,204.1 675.8,204.0 676.8,204.0 677.8,204.0 678.8,204.0 679.8,204.0 680.7,204.0 681.7,204.0 682.7,204.0 683.7,204.0 684.7,204.0 685.6,204.0 686.6,204.0 687.6,203.9 688.6,203.9 689.6,203.9 690.5,203.9 691.5,203.9 692.5,203.9 693.5,203.9 694.5,203.9 695.4,203.9 696.4,203.9 697.4,203.9 698.4,203.9 699.4,203.9 700.3,203.9 701.3,203.9 702.3,203.9 703.3,203.9 704.3,203.9 705.2,203.9 706.2,203.9 707.2,203.9 708.2,203.9 709.2,203.9 710.1,203.9 711.1,203.9 712.1,203.9 713.1,203.9 714.1,203.9 715.0,203.9 716.0,203.9 717.0,203.9 718.0,203.9 719.0,203.9 719.9,203.9 720.9,203.9 721.9,203.9 722.9,203.9 723.9,203.9 724.8,203.9 725.8,203.9 726.8,203.9 727.8,203.9 728.8,203.9 729.7,203.9 730.7,203.9 731.7,203.9 732.7,203.9 733.7,203.9 734.6,203.9 735.6,203.9 736.6,203.9 737.6,203.9 738.6,203.9 739.5,203.9 740.5,203.9 741.5,203.9 742.5,203.9 743.5,203.9 744.4,203.9 745.4,203.9 746.4,203.9 747.4,203.9 748.4,203.9 749.3,203.9 750.3,203.9 751.3,203.9 752.3,203.9 753.3,203.9 754.2,203.9 755.2,203.9 756.2,203.9 757.2,203.9 758.2,203.9 759.1,203.9 760.1,203.9 761.1,203.9 762.1,203.9 763.1,203.9 764.0,203.9 765.0,203.9 766.0,203.9 767.0,203.9 768.0,203.9 768.9,203.9 769.9,203.9 770.9,203.9 771.9,203.9 772.9,203.9 773.8,203.9 774.8,203.9 775.8,203.9 776.8,203.9 777.8,203.9 778.7,203.9 779.7,204.0 780.7,204.0 781.7,204.0 782.7,204.0 783.6,204.0 784.6,204.0 785.6,204.0 786.6,204.0 787.6,204.0 788.5,204.0 789.5,204.0 790.5,204.0 791.5,204.0 792.5,204.0 793.4,204.0 794.4,204.0 795.4,204.0 796.4,204.0 797.4,204.0 798.3,204.0 799.3,204.0 800.3,204.0 801.3,204.0 802.3,204.0 803.2,204.0 804.2,204.0 805.2,204.0 806.2,204.0 807.2,204.0 808.1,204.0 809.1,204.0 810.1,204.0 811.1,204.0 812.1,204.0 813.0,204.0 814.0,204.0 815.0,204.0 816.0,204.0 817.0,204.0 817.9,204.0 818.9,204.0 819.9,204.0 820.9,204.0 821.9,204.0 822.8,204.0 823.8,204.0 824.8,204.0 825.8,204.0 826.8,204.0 827.7,204.0 828.7,204.0 829.7,204.0 830.7,204.0 831.7,204.0 832.6,204.0 833.6,204.0 834.6,204.0 835.6,204.0 836.6,204.0 837.5,204.0 838.5,204.0 839.5,204.0 840.5,204.0 841.5,204.0 842.4,204.0 843.4,204.0 844.4,204.0 845.4,204.0 846.4,204.0 847.3,204.0 848.3,204.0 849.3,204.0 850.3,204.0 851.3,204.0 852.2,204.0 853.2,204.0 854.2,204.0 855.2,204.0 856.2,204.0 857.1,204.0 858.1,204.1 859.1,204.1 860.1,204.1 861.1,204.1 862.0,204.1 863.0,204.1 864.0,204.1 865.0,204.1 866.0,204.1 866.9,204.1 867.9,204.1 868.9,204.1 869.9,204.1 870.9,204.1 871.8,204.1 872.8,204.1 873.8,204.1 874.8,204.1 875.8,204.1 876.7,204.1 877.7,204.1 878.7,204.1 879.7,204.1 880.7,204.1 881.6,204.1 882.6,204.1 883.6,204.1 884.6,204.1 885.6,204.1 886.5,204.1 887.5,204.1 888.5,204.1 889.5,204.1 890.5,204.1 891.4,204.1 892.4,204.1 893.4,204.1 894.4,204.1 895.4,204.1 896.3,204.1 897.3,204.1 898.3,204.1 899.3,204.1 900.3,204.1 901.2,204.1 902.2,204.1 903.2,204.1 904.2,204.1 905.2,204.1 906.1,204.1 907.1,204.1 908.1,204.1 909.1,204.1 910.1,204.1 911.0,204.1 912.0,204.1 913.0,204.1 914.0,204.1 915.0,204.1 915.9,204.1 916.9,204.1 917.9,204.1 918.9,204.1 919.9,204.1 920.8,204.0 921.8,204.0 922.8,204.0 923.8,204.0 924.8,204.0 925.7,204.0 926.7,204.0 927.7,204.0 928.7,204.0 929.7,204.0 930.6,204.0 931.6,204.0 932.6,203.9 933.6,203.9 934.6,203.9 935.5,203.9 936.5,203.9 937.5,203.9 938.5,203.9 939.5,203.9 940.4,203.9 941.4,203.9 942.4,203.9 943.4,203.9 944.4,203.9 945.3,203.9 946.3,203.9 947.3,203.9 948.3,203.9 949.3,203.9 950.2,203.9 951.2,203.9 952.2,203.9 953.2,203.9 954.2,203.9 955.1,203.9 956.1,203.9 957.1,203.9 958.1,203.9 959.1,203.9 960.0,203.9 961.0,203.9 962.0,203.9 963.0,203.9 964.0,203.9 964.9,203.9 965.9,203.9 966.9,203.9 967.9,203.9 968.9,203.9 969.8,203.9 970.8,203.9 971.8,203.9 972.8,203.9 973.8,203.9 974.7,203.9 975.7,203.9 976.7,203.9 977.7,203.9 978.7,203.9 979.6,203.9 980.6,203.9 981.6,203.9 982.6,203.9 983.6,203.9 984.5,203.9 985.5,203.9 986.5,203.9 987.5,203.9 988.5,203.9 989.4,203.9 990.4,203.9 991.4,203.9 992.4,203.9 993.4,203.9 994.3,203.9 995.3,203.9 996.3,203.9 997.3,203.9 998.3,203.9 999.2,203.9 1000.2,203.9 1001.2,203.9 1002.2,203.9 1003.2,203.9 1004.1,203.9 1005.1,203.9 1006.1,203.9 1007.1,203.9 1008.1,203.9 1009.0,203.9 1010.0,203.9 1011.0,203.9 1012.0,203.9 1013.0,203.9 1013.9,203.9 1014.9,203.9 1015.9,203.9 1016.9,203.9 1017.9,203.9 1018.8,203.9 1019.8,203.9 1020.8,203.9 1021.8,203.9 1022.8,203.9 1023.7,203.9 1024.7,204.0 1025.7,204.0 1026.7,204.0 1027.7,204.0 1028.6,204.0 1029.6,204.0 1030.6,204.0 1031.6,204.0 1032.6,204.0 1033.5,204.0 1034.5,204.0 1035.5,204.0 1036.5,204.0 1037.5,204.0 1038.4,204.0 1039.4,204.0 1040.4,204.0 1041.4,204.0 1042.4,204.0 1043.3,204.0 1044.3,204.0 1045.3,204.0 1046.3,204.0 1047.3,204.0 1048.2,204.0 1049.2,204.0 1050.2,204.0 1051.2,204.0 1052.2,204.0 1053.1,204.0 1054.1,204.0 1055.1,204.0 1056.1,204.0 1057.1,204.0 1058.0,204.0 1059.0,204.0 1060.0,204.0" fill="none" stroke="#e6c35c" stroke-width="1.8" stroke-linecap="round" stroke-linejoin="round"/>
<polyline points="80.0,254.5 81.0,254.8 82.0,255.0 82.9,255.3 83.9,255.5 84.9,255.8 85.9,256.0 86.9,256.3 87.8,256.5 88.8,256.8 89.8,257.0 90.8,257.3 91.8,257.5 92.7,257.7 93.7,258.0 94.7,258.2 95.7,258.4 96.7,258.7 97.6,258.9 98.6,259.1 99.6,259.3 100.6,259.6 101.6,259.8 102.5,260.0 103.5,260.2 104.5,260.4 105.5,260.7 106.5,260.9 107.4,261.1 108.4,261.3 109.4,261.5 110.4,261.7 111.4,261.9 112.3,262.1 113.3,262.3 114.3,262.5 115.3,262.7 116.3,262.9 117.2,263.1 118.2,263.3 119.2,263.5 120.2,263.6 121.2,263.8 122.1,264.0 123.1,264.2 124.1,264.4 125.1,264.6 126.1,264.7 127.0,264.9 128.0,265.1 129.0,265.3 130.0,265.4 131.0,265.6 131.9,265.8 132.9,265.9 133.9,266.1 134.9,266.3 135.9,266.4 136.8,266.6 137.8,266.8 138.8,266.9 139.8,267.1 140.8,267.2 141.7,267.4 142.7,267.5 143.7,267.7 144.7,267.9 145.7,268.0 146.6,268.1 147.6,268.3 148.6,268.4 149.6,268.6 150.6,268.7 151.5,268.9 152.5,269.0 153.5,269.2 154.5,269.3 155.5,269.4 156.4,269.6 157.4,269.7 158.4,269.8 159.4,270.0 160.4,270.1 161.3,270.2 162.3,270.4 163.3,270.5 164.3,270.6 165.3,270.8 166.2,270.9 167.2,271.0 168.2,271.1 169.2,271.2 170.2,271.4 171.1,271.5 172.1,271.6 173.1,271.7 174.1,271.8 175.1,272.0 176.0,272.1 177.0,272.1 178.0,271.8 179.0,271.3 180.0,270.6 180.9,269.7 181.9,268.6 182.9,267.4 183.9,266.1 184.9,264.6 185.8,263.1 186.8,261.4 187.8,259.8 188.8,258.0 189.8,256.2 190.7,254.5 191.7,252.7 192.7,250.8 193.7,249.0 194.7,247.3 195.6,245.5 196.6,243.8 197.6,242.1 198.6,240.5 199.6,239.0 200.5,237.5 201.5,236.1 202.5,234.7 203.5,233.5 204.5,232.3 205.4,231.2 206.4,230.3 207.4,229.4 208.4,228.6 209.4,227.8 210.3,227.1 211.3,226.5 212.3,226.0 213.3,225.5 214.3,225.1 215.2,224.7 216.2,224.4 217.2,224.1 218.2,223.8 219.2,223.6 220.1,223.5 221.1,223.4 222.1,223.3 223.1,223.2 224.1,223.2 225.0,223.2 226.0,223.2 227.0,223.3 228.0,223.4 229.0,223.5 229.9,223.6 230.9,223.7 231.9,223.9 232.9,224.1 233.9,224.3 234.8,224.5 235.8,224.7 236.8,224.9 237.8,225.2 238.8,225.4 239.7,225.7 240.7,226.0 241.7,226.3 242.7,226.6 243.7,226.9 244.6,227.2 245.6,227.5 246.6,227.9 247.6,228.2 248.6,228.5 249.5,228.9 250.5,229.2 251.5,229.6 252.5,229.9 253.5,230.3 254.4,230.6 255.4,231.0 256.4,231.3 257.4,231.7 258.4,232.1 259.3,232.5 260.3,232.8 261.3,233.2 262.3,233.6 263.3,233.9 264.2,234.3 265.2,234.7 266.2,235.0 267.2,235.4 268.2,235.8 269.1,236.2 270.1,236.5 271.1,236.9 272.1,237.3 273.1,237.6 274.0,238.0 275.0,238.4 276.0,238.7 277.0,239.1 278.0,239.5 278.9,239.8 279.9,240.2 280.9,240.5 281.9,240.9 282.9,241.2 283.8,241.6 284.8,241.9 285.8,242.3 286.8,242.6 287.8,243.0 288.7,243.3 289.7,243.7 290.7,244.0 291.7,244.3 292.7,244.7 293.6,245.0 294.6,245.3 295.6,245.7 296.6,246.0 297.6,246.3 298.5,246.6 299.5,247.0 300.5,247.3 301.5,247.6 302.5,247.9 303.4,248.2 304.4,248.5 305.4,248.8 306.4,249.1 307.4,249.4 308.3,249.7 309.3,250.0 310.3,250.3 311.3,250.6 312.3,250.9 313.2,251.2 314.2,251.5 315.2,251.8 316.2,252.1 317.2,252.3 318.1,252.6 319.1,252.9 320.1,253.2 321.1,253.4 322.1,253.7 323.0,254.0 324.0,254.2 325.0,254.5 326.0,254.8 327.0,255.0 327.9,255.3 328.9,255.5 329.9,255.8 330.9,256.0 331.9,256.3 332.8,256.5 333.8,256.8 334.8,257.0 335.8,257.3 336.8,257.5 337.7,257.7 338.7,258.0 339.7,258.2 340.7,258.4 341.7,258.7 342.6,258.9 343.6,259.1 344.6,259.3 345.6,259.6 346.6,259.8 347.5,260.0 348.5,260.2 349.5,260.4 350.5,260.7 351.5,260.9 352.4,261.1 353.4,261.3 354.4,261.5 355.4,261.7 356.4,261.9 357.3,262.1 358.3,262.3 359.3,262.5 360.3,262.7 361.3,262.9 362.2,263.1 363.2,263.3 364.2,263.5 365.2,263.6 366.2,263.8 367.1,264.0 368.1,264.2 369.1,264.4 370.1,264.6 371.1,264.7 372.0,264.9 373.0,265.1 374.0,265.3 375.0,265.4 376.0,265.6 376.9,265.8 377.9,265.9 378.9,266.1 379.9,266.3 380.9,266.4 381.8,266.6 382.8,266.8 383.8,266.9 384.8,267.1 385.8,267.2 386.7,267.4 387.7,267.5 388.7,267.7 389.7,267.9 390.7,268.0 391.6,268.1 392.6,268.3 393.6,268.4 394.6,268.6 395.6,268.7 396.5,268.9 397.5,269.0 398.5,269.2 399.5,269.3 400.5,269.4 401.4,269.6 402.4,269.7 403.4,269.8 404.4,270.0 405.4,270.1 406.3,270.2 407.3,270.4 408.3,270.5 409.3,270.6 410.3,270.8 411.2,270.9 412.2,271.0 413.2,271.1 414.2,271.2 415.2,271.4 416.1,271.5 417.1,271.6 418.1,271.7 419.1,271.8 420.1,272.0 421.0,272.1 422.0,272.1 423.0,271.8 424.0,271.3 425.0,270.6 425.9,269.7 426.9,268.6 427.9,267.4 428.9,266.1 429.9,264.6 430.8,263.1 431.8,261.4 432.8,259.8 433.8,258.0 434.8,256.2 435.7,254.5 436.7,252.7 437.7,250.8 438.7,249.0 439.7,247.3 440.6,245.5 441.6,243.8 442.6,242.1 443.6,240.5 444.6,239.0 445.5,237.5 446.5,236.1 447.5,234.7 448.5,233.5 449.5,232.3 450.4,231.2 451.4,230.3 452.4,229.4 453.4,228.6 454.4,227.8 455.3,227.1 456.3,226.5 457.3,226.0 458.3,225.5 459.3,225.1 460.2,224.7 461.2,224.4 462.2,224.1 463.2,223.8 464.2,223.6 465.1,223.5 466.1,223.4 467.1,223.3 468.1,223.2 469.1,223.2 470.0,223.2 471.0,223.2 472.0,223.3 473.0,223.4 474.0,223.5 474.9,223.6 475.9,223.7 476.9,223.9 477.9,224.1 478.9,224.3 479.8,224.5 480.8,224.7 481.8,224.9 482.8,225.2 483.8,225.4 484.7,225.7 485.7,226.0 486.7,226.3 487.7,226.6 488.7,226.9 489.6,227.2 490.6,227.5 491.6,227.9 492.6,228.2 493.6,228.5 494.5,228.9 495.5,229.2 496.5,229.6 497.5,229.9 498.5,230.3 499.4,230.6 500.4,231.0 501.4,231.3 502.4,231.7 503.4,232.1 504.3,232.5 505.3,232.8 506.3,233.2 507.3,233.6 508.3,233.9 509.2,234.3 510.2,234.7 511.2,235.0 512.2,235.4 513.2,235.8 514.1,236.2 515.1,236.5 516.1,236.9 517.1,237.3 518.1,237.6 519.0,238.0 520.0,238.4 521.0,238.7 522.0,239.1 523.0,239.5 523.9,239.8 524.9,240.2 525.9,240.5 526.9,240.9 527.9,241.2 528.8,241.6 529.8,241.9 530.8,242.3 531.8,242.6 532.8,243.0 533.7,243.3 534.7,243.7 535.7,244.0 536.7,244.3 537.7,244.7 538.6,245.0 539.6,245.3 540.6,245.7 541.6,246.0 542.6,246.3 543.5,246.6 544.5,247.0 545.5,247.3 546.5,247.6 547.5,247.9 548.4,248.2 549.4,248.5 550.4,248.8 551.4,249.1 552.4,249.4 553.3,249.7 554.3,250.0 555.3,250.3 556.3,250.6 557.3,250.9 558.2,251.2 559.2,251.5 560.2,251.8 561.2,252.1 562.2,252.3 563.1,252.6 564.1,252.9 565.1,253.2 566.1,253.4 567.1,253.7 568.0,254.0 569.0,254.2 570.0,254.5 571.0,254.8 572.0,255.0 572.9,255.3 573.9,255.5 574.9,255.8 575.9,256.0 576.9,256.3 577.8,256.5 578.8,256.8 579.8,257.0 580.8,257.3 581.8,257.5 582.7,257.7 583.7,258.0 584.7,258.2 585.7,258.4 586.7,258.7 587.6,258.9 588.6,259.1 589.6,259.3 590.6,259.6 591.6,259.8 592.5,260.0 593.5,260.2 594.5,260.4 595.5,260.7 596.5,260.9 597.4,261.1 598.4,261.3 599.4,261.5 600.4,261.7 601.4,261.9 602.3,262.1 603.3,262.3 604.3,262.5 605.3,262.7 606.3,262.9 607.2,263.1 608.2,263.3 609.2,263.5 610.2,263.6 611.2,263.8 612.1,264.0 613.1,264.2 614.1,264.4 615.1,264.6 616.1,264.7 617.0,264.9 618.0,265.1 619.0,265.3 620.0,265.4 621.0,265.6 621.9,265.8 622.9,265.9 623.9,266.1 624.9,266.3 625.9,266.4 626.8,266.6 627.8,266.8 628.8,266.9 629.8,267.1 630.8,267.2 631.7,267.4 632.7,267.5 633.7,267.7 634.7,267.9 635.7,268.0 636.6,268.1 637.6,268.3 638.6,268.4 639.6,268.6 640.6,268.7 641.5,268.9 642.5,269.0 643.5,269.2 644.5,269.3 645.5,269.4 646.4,269.6 647.4,269.7 648.4,269.8 649.4,270.0 650.4,270.1 651.3,270.2 652.3,270.4 653.3,270.5 654.3,270.6 655.3,270.8 656.2,270.9 657.2,271.0 658.2,271.1 659.2,271.2 660.2,271.4 661.1,271.5 662.1,271.6 663.1,271.7 664.1,271.8 665.1,272.0 666.0,272.1 667.0,272.1 668.0,271.8 669.0,271.3 670.0,270.6 670.9,269.7 671.9,268.6 672.9,267.4 673.9,266.1 674.9,264.6 675.8,263.1 676.8,261.4 677.8,259.8 678.8,258.0 679.8,256.2 680.7,254.5 681.7,252.7 682.7,250.8 683.7,249.0 684.7,247.3 685.6,245.5 686.6,243.8 687.6,242.1 688.6,240.5 689.6,239.0 690.5,237.5 691.5,236.1 692.5,234.7 693.5,233.5 694.5,232.3 695.4,231.2 696.4,230.3 697.4,229.4 698.4,228.6 699.4,227.8 700.3,227.1 701.3,226.5 702.3,226.0 703.3,225.5 704.3,225.1 705.2,224.7 706.2,224.4 707.2,224.1 708.2,223.8 709.2,223.6 710.1,223.5 711.1,223.4 712.1,223.3 713.1,223.2 714.1,223.2 715.0,223.2 716.0,223.2 717.0,223.3 718.0,223.4 719.0,223.5 719.9,223.6 720.9,223.7 721.9,223.9 722.9,224.1 723.9,224.3 724.8,224.5 725.8,224.7 726.8,224.9 727.8,225.2 728.8,225.4 729.7,225.7 730.7,226.0 731.7,226.3 732.7,226.6 733.7,226.9 734.6,227.2 735.6,227.5 736.6,227.9 737.6,228.2 738.6,228.5 739.5,228.9 740.5,229.2 741.5,229.6 742.5,229.9 743.5,230.3 744.4,230.6 745.4,231.0 746.4,231.3 747.4,231.7 748.4,232.1 749.3,232.5 750.3,232.8 751.3,233.2 752.3,233.6 753.3,233.9 754.2,234.3 755.2,234.7 756.2,235.0 757.2,235.4 758.2,235.8 759.1,236.2 760.1,236.5 761.1,236.9 762.1,237.3 763.1,237.6 764.0,238.0 765.0,238.4 766.0,238.7 767.0,239.1 768.0,239.5 768.9,239.8 769.9,240.2 770.9,240.5 771.9,240.9 772.9,241.2 773.8,241.6 774.8,241.9 775.8,242.3 776.8,242.6 777.8,243.0 778.7,243.3 779.7,243.7 780.7,244.0 781.7,244.3 782.7,244.7 783.6,245.0 784.6,245.3 785.6,245.7 786.6,246.0 787.6,246.3 788.5,246.6 789.5,247.0 790.5,247.3 791.5,247.6 792.5,247.9 793.4,248.2 794.4,248.5 795.4,248.8 796.4,249.1 797.4,249.4 798.3,249.7 799.3,250.0 800.3,250.3 801.3,250.6 802.3,250.9 803.2,251.2 804.2,251.5 805.2,251.8 806.2,252.1 807.2,252.3 808.1,252.6 809.1,252.9 810.1,253.2 811.1,253.4 812.1,253.7 813.0,254.0 814.0,254.2 815.0,254.5 816.0,254.8 817.0,255.0 817.9,255.3 818.9,255.5 819.9,255.8 820.9,256.0 821.9,256.3 822.8,256.5 823.8,256.8 824.8,257.0 825.8,257.3 826.8,257.5 827.7,257.7 828.7,258.0 829.7,258.2 830.7,258.4 831.7,258.7 832.6,258.9 833.6,259.1 834.6,259.3 835.6,259.6 836.6,259.8 837.5,260.0 838.5,260.2 839.5,260.4 840.5,260.7 841.5,260.9 842.4,261.1 843.4,261.3 844.4,261.5 845.4,261.7 846.4,261.9 847.3,262.1 848.3,262.3 849.3,262.5 850.3,262.7 851.3,262.9 852.2,263.1 853.2,263.3 854.2,263.5 855.2,263.6 856.2,263.8 857.1,264.0 858.1,264.2 859.1,264.4 860.1,264.6 861.1,264.7 862.0,264.9 863.0,265.1 864.0,265.3 865.0,265.4 866.0,265.6 866.9,265.8 867.9,265.9 868.9,266.1 869.9,266.3 870.9,266.4 871.8,266.6 872.8,266.8 873.8,266.9 874.8,267.1 875.8,267.2 876.7,267.4 877.7,267.5 878.7,267.7 879.7,267.9 880.7,268.0 881.6,268.1 882.6,268.3 883.6,268.4 884.6,268.6 885.6,268.7 886.5,268.9 887.5,269.0 888.5,269.2 889.5,269.3 890.5,269.4 891.4,269.6 892.4,269.7 893.4,269.8 894.4,270.0 895.4,270.1 896.3,270.2 897.3,270.4 898.3,270.5 899.3,270.6 900.3,270.8 901.2,270.9 902.2,271.0 903.2,271.1 904.2,271.2 905.2,271.4 906.1,271.5 907.1,271.6 908.1,271.7 909.1,271.8 910.1,272.0 911.0,272.1 912.0,272.1 913.0,271.8 914.0,271.3 915.0,270.6 915.9,269.7 916.9,268.6 917.9,267.4 918.9,266.1 919.9,264.6 920.8,263.1 921.8,261.4 922.8,259.8 923.8,258.0 924.8,256.2 925.7,254.5 926.7,252.7 927.7,250.8 928.7,249.0 929.7,247.3 930.6,245.5 931.6,243.8 932.6,242.1 933.6,240.5 934.6,239.0 935.5,237.5 936.5,236.1 937.5,234.7 938.5,233.5 939.5,232.3 940.4,231.2 941.4,230.3 942.4,229.4 943.4,228.6 944.4,227.8 945.3,227.1 946.3,226.5 947.3,226.0 948.3,225.5 949.3,225.1 950.2,224.7 951.2,224.4 952.2,224.1 953.2,223.8 954.2,223.6 955.1,223.5 956.1,223.4 957.1,223.3 958.1,223.2 959.1,223.2 960.0,223.2 961.0,223.2 962.0,223.3 963.0,223.4 964.0,223.5 964.9,223.6 965.9,223.7 966.9,223.9 967.9,224.1 968.9,224.3 969.8,224.5 970.8,224.7 971.8,224.9 972.8,225.2 973.8,225.4 974.7,225.7 975.7,226.0 976.7,226.3 977.7,226.6 978.7,226.9 979.6,227.2 980.6,227.5 981.6,227.9 982.6,228.2 983.6,228.5 984.5,228.9 985.5,229.2 986.5,229.6 987.5,229.9 988.5,230.3 989.4,230.6 990.4,231.0 991.4,231.3 992.4,231.7 993.4,232.1 994.3,232.5 995.3,232.8 996.3,233.2 997.3,233.6 998.3,233.9 999.2,234.3 1000.2,234.7 1001.2,235.0 1002.2,235.4 1003.2,235.8 1004.1,236.2 1005.1,236.5 1006.1,236.9 1007.1,237.3 1008.1,237.6 1009.0,238.0 1010.0,238.4 1011.0,238.7 1012.0,239.1 1013.0,239.5 1013.9,239.8 1014.9,240.2 1015.9,240.5 1016.9,240.9 1017.9,241.2 1018.8,241.6 1019.8,241.9 1020.8,242.3 1021.8,242.6 1022.8,243.0 1023.7,243.3 1024.7,243.7 1025.7,244.0 1026.7,244.3 1027.7,244.7 1028.6,245.0 1029.6,245.3 1030.6,245.7 1031.6,246.0 1032.6,246.3 1033.5,246.6 1034.5,247.0 1035.5,247.3 1036.5,247.6 1037.5,247.9 1038.4,248.2 1039.4,248.5 1040.4,248.8 1041.4,249.1 1042.4,249.4 1043.3,249.7 1044.3,250.0 1045.3,250.3 1046.3,250.6 1047.3,250.9 1048.2,251.2 1049.2,251.5 1050.2,251.8 1051.2,252.1 1052.2,252.3 1053.1,252.6 1054.1,252.9 1055.1,253.2 1056.1,253.4 1057.1,253.7 1058.0,254.0 1059.0,254.2 1060.0,254.5" fill="none" stroke="#3ec6e0" stroke-width="1.8" stroke-linecap="round" stroke-linejoin="round"/>
<text x="74.0" y="126.0" fill="#e6c35c" font-size="11" font-family="Noto Sans Thai, Sarabun, Tahoma, DejaVu Sans, sans-serif" font-weight="normal" font-style="normal" text-anchor="end">V</text>
<text x="74.0" y="142.0" fill="#3ec6e0" font-size="11" font-family="Noto Sans Thai, Sarabun, Tahoma, DejaVu Sans, sans-serif" font-weight="normal" font-style="normal" text-anchor="end">A</text>
<rect x="80.0" y="330.0" width="980.0" height="175.0" rx="6.0" fill="#0b121c" stroke="#2c4458" stroke-width="1.0"/>
<text x="80.0" y="322.0" fill="#d5e4f0" font-size="13" font-family="Noto Sans Thai, Sarabun, Tahoma, DejaVu Sans, sans-serif" font-weight="700" font-style="normal" text-anchor="start">5 ms/div   D ∝ 1/Vin   CH1 50 V/div  CH2 2 A/div</text>
<text x="1060.0" y="322.0" fill="#8fa3b5" font-size="12" font-family="Noto Sans Thai, Sarabun, Tahoma, DejaVu Sans, sans-serif" font-weight="normal" font-style="normal" text-anchor="end">V≈54.4 V   I mean 5.00 A   I pp 0.13 A</text>
<polyline points="80.0,423.8 81.0,423.8 82.0,423.8 82.9,423.8 83.9,423.8 84.9,423.8 85.9,423.8 86.9,423.8 87.8,423.8 88.8,423.8 89.8,423.8 90.8,423.8 91.8,423.8 92.7,423.8 93.7,423.8 94.7,423.8 95.7,423.8 96.7,423.8 97.6,423.8 98.6,423.8 99.6,423.8 100.6,423.8 101.6,423.8 102.5,423.8 103.5,423.8 104.5,423.8 105.5,423.8 106.5,423.8 107.4,423.8 108.4,423.8 109.4,423.8 110.4,423.8 111.4,423.8 112.3,423.8 113.3,423.8 114.3,423.8 115.3,423.8 116.3,423.8 117.2,423.8 118.2,423.8 119.2,423.8 120.2,423.8 121.2,423.8 122.1,423.8 123.1,423.8 124.1,423.8 125.1,423.8 126.1,423.8 127.0,423.8 128.0,423.8 129.0,423.8 130.0,423.8 131.0,423.8 131.9,423.8 132.9,423.8 133.9,423.8 134.9,423.8 135.9,423.8 136.8,423.8 137.8,423.8 138.8,423.8 139.8,423.8 140.8,423.8 141.7,423.8 142.7,423.8 143.7,423.8 144.7,423.8 145.7,423.8 146.6,423.8 147.6,423.8 148.6,423.8 149.6,423.8 150.6,423.8 151.5,423.8 152.5,423.8 153.5,423.8 154.5,423.8 155.5,423.8 156.4,423.8 157.4,423.8 158.4,423.8 159.4,423.8 160.4,423.8 161.3,423.8 162.3,423.8 163.3,423.8 164.3,423.8 165.3,423.8 166.2,423.8 167.2,423.8 168.2,423.8 169.2,423.8 170.2,423.8 171.1,423.8 172.1,423.8 173.1,423.8 174.1,423.8 175.1,423.8 176.0,423.8 177.0,423.8 178.0,423.8 179.0,423.8 180.0,423.8 180.9,423.8 181.9,423.8 182.9,423.8 183.9,423.8 184.9,423.8 185.8,423.8 186.8,423.8 187.8,423.8 188.8,423.8 189.8,423.8 190.7,423.8 191.7,423.8 192.7,423.8 193.7,423.8 194.7,423.8 195.6,423.8 196.6,423.8 197.6,423.8 198.6,423.8 199.6,423.8 200.5,423.8 201.5,423.8 202.5,423.8 203.5,423.8 204.5,423.8 205.4,423.8 206.4,423.8 207.4,423.8 208.4,423.8 209.4,423.8 210.3,423.8 211.3,423.8 212.3,423.8 213.3,423.8 214.3,423.8 215.2,423.8 216.2,423.8 217.2,423.8 218.2,423.8 219.2,423.8 220.1,423.8 221.1,423.8 222.1,423.8 223.1,423.8 224.1,423.8 225.0,423.8 226.0,423.8 227.0,423.8 228.0,423.8 229.0,423.8 229.9,423.8 230.9,423.8 231.9,423.8 232.9,423.8 233.9,423.8 234.8,423.8 235.8,423.8 236.8,423.8 237.8,423.8 238.8,423.8 239.7,423.8 240.7,423.8 241.7,423.8 242.7,423.8 243.7,423.8 244.6,423.8 245.6,423.8 246.6,423.8 247.6,423.8 248.6,423.8 249.5,423.8 250.5,423.8 251.5,423.8 252.5,423.8 253.5,423.8 254.4,423.8 255.4,423.8 256.4,423.8 257.4,423.8 258.4,423.8 259.3,423.8 260.3,423.8 261.3,423.8 262.3,423.8 263.3,423.8 264.2,423.8 265.2,423.8 266.2,423.8 267.2,423.8 268.2,423.8 269.1,423.8 270.1,423.8 271.1,423.8 272.1,423.8 273.1,423.8 274.0,423.8 275.0,423.8 276.0,423.8 277.0,423.8 278.0,423.8 278.9,423.8 279.9,423.8 280.9,423.8 281.9,423.8 282.9,423.8 283.8,423.8 284.8,423.8 285.8,423.8 286.8,423.8 287.8,423.8 288.7,423.8 289.7,423.8 290.7,423.8 291.7,423.8 292.7,423.8 293.6,423.8 294.6,423.8 295.6,423.8 296.6,423.8 297.6,423.8 298.5,423.8 299.5,423.8 300.5,423.8 301.5,423.8 302.5,423.8 303.4,423.8 304.4,423.8 305.4,423.8 306.4,423.8 307.4,423.8 308.3,423.8 309.3,423.8 310.3,423.8 311.3,423.8 312.3,423.8 313.2,423.8 314.2,423.8 315.2,423.8 316.2,423.8 317.2,423.8 318.1,423.8 319.1,423.8 320.1,423.8 321.1,423.8 322.1,423.8 323.0,423.8 324.0,423.8 325.0,423.8 326.0,423.8 327.0,423.8 327.9,423.8 328.9,423.8 329.9,423.8 330.9,423.8 331.9,423.8 332.8,423.8 333.8,423.8 334.8,423.8 335.8,423.8 336.8,423.8 337.7,423.8 338.7,423.8 339.7,423.8 340.7,423.8 341.7,423.8 342.6,423.8 343.6,423.8 344.6,423.8 345.6,423.8 346.6,423.8 347.5,423.8 348.5,423.8 349.5,423.8 350.5,423.8 351.5,423.8 352.4,423.8 353.4,423.8 354.4,423.8 355.4,423.8 356.4,423.8 357.3,423.8 358.3,423.8 359.3,423.8 360.3,423.8 361.3,423.8 362.2,423.8 363.2,423.8 364.2,423.8 365.2,423.8 366.2,423.8 367.1,423.8 368.1,423.8 369.1,423.8 370.1,423.8 371.1,423.8 372.0,423.8 373.0,423.8 374.0,423.8 375.0,423.8 376.0,423.8 376.9,423.8 377.9,423.8 378.9,423.8 379.9,423.8 380.9,423.8 381.8,423.8 382.8,423.8 383.8,423.8 384.8,423.8 385.8,423.8 386.7,423.8 387.7,423.8 388.7,423.8 389.7,423.8 390.7,423.8 391.6,423.8 392.6,423.8 393.6,423.8 394.6,423.8 395.6,423.8 396.5,423.8 397.5,423.8 398.5,423.8 399.5,423.8 400.5,423.8 401.4,423.8 402.4,423.8 403.4,423.8 404.4,423.8 405.4,423.8 406.3,423.8 407.3,423.8 408.3,423.8 409.3,423.8 410.3,423.8 411.2,423.8 412.2,423.8 413.2,423.8 414.2,423.8 415.2,423.8 416.1,423.8 417.1,423.8 418.1,423.8 419.1,423.8 420.1,423.8 421.0,423.8 422.0,423.8 423.0,423.8 424.0,423.8 425.0,423.8 425.9,423.8 426.9,423.8 427.9,423.8 428.9,423.8 429.9,423.8 430.8,423.8 431.8,423.8 432.8,423.8 433.8,423.8 434.8,423.8 435.7,423.8 436.7,423.8 437.7,423.8 438.7,423.8 439.7,423.8 440.6,423.8 441.6,423.8 442.6,423.8 443.6,423.8 444.6,423.8 445.5,423.8 446.5,423.8 447.5,423.8 448.5,423.8 449.5,423.8 450.4,423.8 451.4,423.8 452.4,423.8 453.4,423.8 454.4,423.8 455.3,423.8 456.3,423.8 457.3,423.8 458.3,423.8 459.3,423.8 460.2,423.8 461.2,423.8 462.2,423.8 463.2,423.8 464.2,423.8 465.1,423.8 466.1,423.8 467.1,423.8 468.1,423.8 469.1,423.8 470.0,423.8 471.0,423.8 472.0,423.8 473.0,423.8 474.0,423.8 474.9,423.8 475.9,423.8 476.9,423.8 477.9,423.8 478.9,423.8 479.8,423.8 480.8,423.8 481.8,423.8 482.8,423.8 483.8,423.8 484.7,423.8 485.7,423.8 486.7,423.8 487.7,423.8 488.7,423.8 489.6,423.8 490.6,423.8 491.6,423.8 492.6,423.8 493.6,423.8 494.5,423.8 495.5,423.8 496.5,423.8 497.5,423.8 498.5,423.8 499.4,423.8 500.4,423.8 501.4,423.8 502.4,423.8 503.4,423.8 504.3,423.8 505.3,423.8 506.3,423.8 507.3,423.8 508.3,423.8 509.2,423.8 510.2,423.8 511.2,423.8 512.2,423.8 513.2,423.8 514.1,423.8 515.1,423.8 516.1,423.8 517.1,423.8 518.1,423.8 519.0,423.8 520.0,423.8 521.0,423.8 522.0,423.8 523.0,423.8 523.9,423.8 524.9,423.8 525.9,423.8 526.9,423.8 527.9,423.8 528.8,423.8 529.8,423.8 530.8,423.8 531.8,423.8 532.8,423.8 533.7,423.8 534.7,423.8 535.7,423.8 536.7,423.8 537.7,423.8 538.6,423.8 539.6,423.8 540.6,423.8 541.6,423.8 542.6,423.8 543.5,423.8 544.5,423.8 545.5,423.8 546.5,423.8 547.5,423.8 548.4,423.8 549.4,423.8 550.4,423.8 551.4,423.8 552.4,423.8 553.3,423.8 554.3,423.8 555.3,423.8 556.3,423.8 557.3,423.8 558.2,423.8 559.2,423.8 560.2,423.8 561.2,423.8 562.2,423.8 563.1,423.8 564.1,423.8 565.1,423.8 566.1,423.8 567.1,423.8 568.0,423.8 569.0,423.8 570.0,423.8 571.0,423.8 572.0,423.8 572.9,423.8 573.9,423.8 574.9,423.8 575.9,423.8 576.9,423.8 577.8,423.8 578.8,423.8 579.8,423.8 580.8,423.8 581.8,423.8 582.7,423.8 583.7,423.8 584.7,423.8 585.7,423.8 586.7,423.8 587.6,423.8 588.6,423.8 589.6,423.8 590.6,423.8 591.6,423.8 592.5,423.8 593.5,423.8 594.5,423.8 595.5,423.8 596.5,423.8 597.4,423.8 598.4,423.8 599.4,423.8 600.4,423.8 601.4,423.8 602.3,423.8 603.3,423.8 604.3,423.8 605.3,423.8 606.3,423.8 607.2,423.8 608.2,423.8 609.2,423.8 610.2,423.8 611.2,423.8 612.1,423.8 613.1,423.8 614.1,423.8 615.1,423.8 616.1,423.8 617.0,423.8 618.0,423.8 619.0,423.8 620.0,423.8 621.0,423.8 621.9,423.8 622.9,423.8 623.9,423.8 624.9,423.8 625.9,423.8 626.8,423.8 627.8,423.8 628.8,423.8 629.8,423.8 630.8,423.8 631.7,423.8 632.7,423.8 633.7,423.8 634.7,423.8 635.7,423.8 636.6,423.8 637.6,423.8 638.6,423.8 639.6,423.8 640.6,423.8 641.5,423.8 642.5,423.8 643.5,423.8 644.5,423.8 645.5,423.8 646.4,423.8 647.4,423.8 648.4,423.8 649.4,423.8 650.4,423.8 651.3,423.8 652.3,423.8 653.3,423.8 654.3,423.8 655.3,423.8 656.2,423.8 657.2,423.8 658.2,423.8 659.2,423.8 660.2,423.8 661.1,423.8 662.1,423.8 663.1,423.8 664.1,423.8 665.1,423.8 666.0,423.8 667.0,423.8 668.0,423.8 669.0,423.8 670.0,423.8 670.9,423.8 671.9,423.8 672.9,423.8 673.9,423.8 674.9,423.8 675.8,423.8 676.8,423.8 677.8,423.8 678.8,423.8 679.8,423.8 680.7,423.8 681.7,423.8 682.7,423.8 683.7,423.8 684.7,423.8 685.6,423.8 686.6,423.8 687.6,423.8 688.6,423.8 689.6,423.8 690.5,423.8 691.5,423.8 692.5,423.8 693.5,423.8 694.5,423.8 695.4,423.8 696.4,423.8 697.4,423.8 698.4,423.8 699.4,423.8 700.3,423.8 701.3,423.8 702.3,423.8 703.3,423.8 704.3,423.8 705.2,423.8 706.2,423.8 707.2,423.8 708.2,423.8 709.2,423.8 710.1,423.8 711.1,423.8 712.1,423.8 713.1,423.8 714.1,423.8 715.0,423.8 716.0,423.8 717.0,423.8 718.0,423.8 719.0,423.8 719.9,423.8 720.9,423.8 721.9,423.8 722.9,423.8 723.9,423.8 724.8,423.8 725.8,423.8 726.8,423.8 727.8,423.8 728.8,423.8 729.7,423.8 730.7,423.8 731.7,423.8 732.7,423.8 733.7,423.8 734.6,423.8 735.6,423.8 736.6,423.8 737.6,423.8 738.6,423.8 739.5,423.8 740.5,423.8 741.5,423.8 742.5,423.8 743.5,423.8 744.4,423.8 745.4,423.8 746.4,423.8 747.4,423.8 748.4,423.8 749.3,423.8 750.3,423.8 751.3,423.8 752.3,423.8 753.3,423.8 754.2,423.8 755.2,423.8 756.2,423.8 757.2,423.8 758.2,423.8 759.1,423.8 760.1,423.8 761.1,423.8 762.1,423.8 763.1,423.8 764.0,423.8 765.0,423.8 766.0,423.8 767.0,423.8 768.0,423.8 768.9,423.8 769.9,423.8 770.9,423.8 771.9,423.8 772.9,423.8 773.8,423.8 774.8,423.8 775.8,423.8 776.8,423.8 777.8,423.8 778.7,423.8 779.7,423.8 780.7,423.8 781.7,423.8 782.7,423.8 783.6,423.8 784.6,423.8 785.6,423.8 786.6,423.8 787.6,423.8 788.5,423.8 789.5,423.8 790.5,423.8 791.5,423.8 792.5,423.8 793.4,423.8 794.4,423.8 795.4,423.8 796.4,423.8 797.4,423.8 798.3,423.8 799.3,423.8 800.3,423.8 801.3,423.8 802.3,423.8 803.2,423.8 804.2,423.8 805.2,423.8 806.2,423.8 807.2,423.8 808.1,423.8 809.1,423.8 810.1,423.8 811.1,423.8 812.1,423.8 813.0,423.8 814.0,423.8 815.0,423.8 816.0,423.8 817.0,423.8 817.9,423.8 818.9,423.8 819.9,423.8 820.9,423.8 821.9,423.8 822.8,423.8 823.8,423.8 824.8,423.8 825.8,423.8 826.8,423.8 827.7,423.8 828.7,423.8 829.7,423.8 830.7,423.8 831.7,423.8 832.6,423.8 833.6,423.8 834.6,423.8 835.6,423.8 836.6,423.8 837.5,423.8 838.5,423.8 839.5,423.8 840.5,423.8 841.5,423.8 842.4,423.8 843.4,423.8 844.4,423.8 845.4,423.8 846.4,423.8 847.3,423.8 848.3,423.8 849.3,423.8 850.3,423.8 851.3,423.8 852.2,423.8 853.2,423.8 854.2,423.8 855.2,423.8 856.2,423.8 857.1,423.8 858.1,423.8 859.1,423.8 860.1,423.8 861.1,423.8 862.0,423.8 863.0,423.8 864.0,423.8 865.0,423.8 866.0,423.8 866.9,423.8 867.9,423.8 868.9,423.8 869.9,423.8 870.9,423.8 871.8,423.8 872.8,423.8 873.8,423.8 874.8,423.8 875.8,423.8 876.7,423.8 877.7,423.8 878.7,423.8 879.7,423.8 880.7,423.8 881.6,423.8 882.6,423.8 883.6,423.8 884.6,423.8 885.6,423.8 886.5,423.8 887.5,423.8 888.5,423.8 889.5,423.8 890.5,423.8 891.4,423.8 892.4,423.8 893.4,423.8 894.4,423.8 895.4,423.8 896.3,423.8 897.3,423.8 898.3,423.8 899.3,423.8 900.3,423.8 901.2,423.8 902.2,423.8 903.2,423.8 904.2,423.8 905.2,423.8 906.1,423.8 907.1,423.8 908.1,423.8 909.1,423.8 910.1,423.8 911.0,423.8 912.0,423.8 913.0,423.8 914.0,423.8 915.0,423.8 915.9,423.8 916.9,423.8 917.9,423.8 918.9,423.8 919.9,423.8 920.8,423.8 921.8,423.8 922.8,423.8 923.8,423.8 924.8,423.8 925.7,423.8 926.7,423.8 927.7,423.8 928.7,423.8 929.7,423.8 930.6,423.8 931.6,423.8 932.6,423.8 933.6,423.8 934.6,423.8 935.5,423.8 936.5,423.8 937.5,423.8 938.5,423.8 939.5,423.8 940.4,423.8 941.4,423.8 942.4,423.8 943.4,423.8 944.4,423.8 945.3,423.8 946.3,423.8 947.3,423.8 948.3,423.8 949.3,423.8 950.2,423.8 951.2,423.8 952.2,423.8 953.2,423.8 954.2,423.8 955.1,423.8 956.1,423.8 957.1,423.8 958.1,423.8 959.1,423.8 960.0,423.8 961.0,423.8 962.0,423.8 963.0,423.8 964.0,423.8 964.9,423.8 965.9,423.8 966.9,423.8 967.9,423.8 968.9,423.8 969.8,423.8 970.8,423.8 971.8,423.8 972.8,423.8 973.8,423.8 974.7,423.8 975.7,423.8 976.7,423.8 977.7,423.8 978.7,423.8 979.6,423.8 980.6,423.8 981.6,423.8 982.6,423.8 983.6,423.8 984.5,423.8 985.5,423.8 986.5,423.8 987.5,423.8 988.5,423.8 989.4,423.8 990.4,423.8 991.4,423.8 992.4,423.8 993.4,423.8 994.3,423.8 995.3,423.8 996.3,423.8 997.3,423.8 998.3,423.8 999.2,423.8 1000.2,423.8 1001.2,423.8 1002.2,423.8 1003.2,423.8 1004.1,423.8 1005.1,423.8 1006.1,423.8 1007.1,423.8 1008.1,423.8 1009.0,423.8 1010.0,423.8 1011.0,423.8 1012.0,423.8 1013.0,423.8 1013.9,423.8 1014.9,423.8 1015.9,423.8 1016.9,423.8 1017.9,423.8 1018.8,423.8 1019.8,423.8 1020.8,423.8 1021.8,423.8 1022.8,423.8 1023.7,423.8 1024.7,423.8 1025.7,423.8 1026.7,423.8 1027.7,423.8 1028.6,423.8 1029.6,423.8 1030.6,423.8 1031.6,423.8 1032.6,423.8 1033.5,423.8 1034.5,423.8 1035.5,423.8 1036.5,423.8 1037.5,423.8 1038.4,423.8 1039.4,423.8 1040.4,423.8 1041.4,423.8 1042.4,423.8 1043.3,423.8 1044.3,423.8 1045.3,423.8 1046.3,423.8 1047.3,423.8 1048.2,423.8 1049.2,423.8 1050.2,423.8 1051.2,423.8 1052.2,423.8 1053.1,423.8 1054.1,423.8 1055.1,423.8 1056.1,423.8 1057.1,423.8 1058.0,423.8 1059.0,423.8 1060.0,423.8" fill="none" stroke="#e6c35c" stroke-width="1.8" stroke-linecap="round" stroke-linejoin="round"/>
<polyline points="80.0,432.1 81.0,432.1 82.0,432.1 82.9,432.1 83.9,432.1 84.9,432.1 85.9,432.1 86.9,432.1 87.8,432.1 88.8,432.1 89.8,432.1 90.8,432.1 91.8,432.1 92.7,432.1 93.7,432.1 94.7,432.1 95.7,432.1 96.7,432.1 97.6,432.1 98.6,432.1 99.6,432.1 100.6,432.1 101.6,432.1 102.5,432.1 103.5,432.1 104.5,432.1 105.5,432.1 106.5,432.1 107.4,432.1 108.4,432.1 109.4,432.1 110.4,432.1 111.4,432.1 112.3,432.1 113.3,432.1 114.3,432.1 115.3,432.1 116.3,432.1 117.2,432.1 118.2,432.1 119.2,432.1 120.2,432.1 121.2,432.1 122.1,432.1 123.1,432.1 124.1,432.1 125.1,432.1 126.1,432.1 127.0,432.1 128.0,432.1 129.0,432.1 130.0,432.1 131.0,432.1 131.9,432.1 132.9,432.1 133.9,432.1 134.9,432.1 135.9,432.1 136.8,432.1 137.8,432.1 138.8,432.1 139.8,432.1 140.8,432.1 141.7,432.1 142.7,432.1 143.7,432.1 144.7,432.1 145.7,432.1 146.6,432.1 147.6,432.1 148.6,432.1 149.6,432.1 150.6,432.1 151.5,432.1 152.5,432.1 153.5,432.1 154.5,432.1 155.5,432.1 156.4,432.1 157.4,432.1 158.4,432.1 159.4,432.1 160.4,432.1 161.3,432.1 162.3,432.1 163.3,432.1 164.3,432.1 165.3,432.1 166.2,432.0 167.2,431.9 168.2,431.7 169.2,431.4 170.2,431.4 171.1,431.3 172.1,431.1 173.1,431.1 174.1,431.0 175.1,430.9 176.0,431.0 177.0,431.0 178.0,430.9 179.0,431.0 180.0,431.0 180.9,431.0 181.9,431.1 182.9,431.1 183.9,431.1 184.9,431.2 185.8,431.3 186.8,431.3 187.8,431.4 188.8,431.5 189.8,431.5 190.7,431.6 191.7,431.7 192.7,431.7 193.7,431.8 194.7,431.9 195.6,431.9 196.6,432.0 197.6,432.1 198.6,432.1 199.6,432.2 200.5,432.3 201.5,432.3 202.5,432.4 203.5,432.4 204.5,432.5 205.4,432.5 206.4,432.6 207.4,432.6 208.4,432.7 209.4,432.7 210.3,432.7 211.3,432.7 212.3,432.7 213.3,432.7 214.3,432.7 215.2,432.7 216.2,432.7 217.2,432.7 218.2,432.7 219.2,432.7 220.1,432.7 221.1,432.7 222.1,432.7 223.1,432.6 224.1,432.6 225.0,432.6 226.0,432.6 227.0,432.6 228.0,432.6 229.0,432.5 229.9,432.5 230.9,432.5 231.9,432.5 232.9,432.5 233.9,432.4 234.8,432.4 235.8,432.4 236.8,432.4 237.8,432.4 238.8,432.4 239.7,432.3 240.7,432.3 241.7,432.3 242.7,432.3 243.7,432.3 244.6,432.3 245.6,432.3 246.6,432.2 247.6,432.2 248.6,432.2 249.5,432.2 250.5,432.2 251.5,432.2 252.5,432.2 253.5,432.2 254.4,432.2 255.4,432.2 256.4,432.2 257.4,432.2 258.4,432.1 259.3,432.1 260.3,432.1 261.3,432.1 262.3,432.1 263.3,432.1 264.2,432.1 265.2,432.1 266.2,432.1 267.2,432.1 268.2,432.1 269.1,432.1 270.1,432.1 271.1,432.1 272.1,432.1 273.1,432.1 274.0,432.1 275.0,432.1 276.0,432.1 277.0,432.1 278.0,432.1 278.9,432.1 279.9,432.1 280.9,432.1 281.9,432.1 282.9,432.1 283.8,432.1 284.8,432.1 285.8,432.1 286.8,432.1 287.8,432.1 288.7,432.1 289.7,432.1 290.7,432.1 291.7,432.1 292.7,432.1 293.6,432.1 294.6,432.1 295.6,432.1 296.6,432.1 297.6,432.1 298.5,432.1 299.5,432.1 300.5,432.1 301.5,432.1 302.5,432.1 303.4,432.1 304.4,432.1 305.4,432.1 306.4,432.1 307.4,432.1 308.3,432.1 309.3,432.1 310.3,432.1 311.3,432.1 312.3,432.1 313.2,432.1 314.2,432.1 315.2,432.1 316.2,432.1 317.2,432.1 318.1,432.1 319.1,432.1 320.1,432.1 321.1,432.1 322.1,432.1 323.0,432.1 324.0,432.1 325.0,432.1 326.0,432.1 327.0,432.1 327.9,432.1 328.9,432.1 329.9,432.1 330.9,432.1 331.9,432.1 332.8,432.1 333.8,432.1 334.8,432.1 335.8,432.1 336.8,432.1 337.7,432.1 338.7,432.1 339.7,432.1 340.7,432.1 341.7,432.1 342.6,432.1 343.6,432.1 344.6,432.1 345.6,432.1 346.6,432.1 347.5,432.1 348.5,432.1 349.5,432.1 350.5,432.1 351.5,432.1 352.4,432.1 353.4,432.1 354.4,432.1 355.4,432.1 356.4,432.1 357.3,432.1 358.3,432.1 359.3,432.1 360.3,432.1 361.3,432.1 362.2,432.1 363.2,432.1 364.2,432.1 365.2,432.1 366.2,432.1 367.1,432.1 368.1,432.1 369.1,432.1 370.1,432.1 371.1,432.1 372.0,432.1 373.0,432.1 374.0,432.1 375.0,432.1 376.0,432.1 376.9,432.1 377.9,432.1 378.9,432.1 379.9,432.1 380.9,432.1 381.8,432.1 382.8,432.1 383.8,432.1 384.8,432.1 385.8,432.1 386.7,432.1 387.7,432.1 388.7,432.1 389.7,432.1 390.7,432.1 391.6,432.1 392.6,432.1 393.6,432.1 394.6,432.1 395.6,432.1 396.5,432.1 397.5,432.1 398.5,432.1 399.5,432.1 400.5,432.1 401.4,432.1 402.4,432.1 403.4,432.1 404.4,432.1 405.4,432.1 406.3,432.1 407.3,432.1 408.3,432.1 409.3,432.1 410.3,432.1 411.2,432.0 412.2,431.8 413.2,431.5 414.2,431.4 415.2,431.3 416.1,431.1 417.1,431.1 418.1,431.1 419.1,430.9 420.1,431.0 421.0,431.0 422.0,430.9 423.0,431.0 424.0,431.0 425.0,430.9 425.9,431.0 426.9,431.1 427.9,431.1 428.9,431.2 429.9,431.2 430.8,431.3 431.8,431.4 432.8,431.4 433.8,431.5 434.8,431.6 435.7,431.6 436.7,431.7 437.7,431.8 438.7,431.8 439.7,431.9 440.6,432.0 441.6,432.0 442.6,432.1 443.6,432.2 444.6,432.2 445.5,432.3 446.5,432.3 447.5,432.4 448.5,432.5 449.5,432.5 450.4,432.5 451.4,432.6 452.4,432.6 453.4,432.7 454.4,432.7 455.3,432.7 456.3,432.7 457.3,432.7 458.3,432.7 459.3,432.7 460.2,432.7 461.2,432.7 462.2,432.7 463.2,432.7 464.2,432.7 465.1,432.7 466.1,432.7 467.1,432.7 468.1,432.7 469.1,432.6 470.0,432.6 471.0,432.6 472.0,432.6 473.0,432.6 474.0,432.5 474.9,432.5 475.9,432.5 476.9,432.5 477.9,432.5 478.9,432.4 479.8,432.4 480.8,432.4 481.8,432.4 482.8,432.4 483.8,432.4 484.7,432.3 485.7,432.3 486.7,432.3 487.7,432.3 488.7,432.3 489.6,432.3 490.6,432.3 491.6,432.2 492.6,432.2 493.6,432.2 494.5,432.2 495.5,432.2 496.5,432.2 497.5,432.2 498.5,432.2 499.4,432.2 500.4,432.2 501.4,432.2 502.4,432.1 503.4,432.1 504.3,432.1 505.3,432.1 506.3,432.1 507.3,432.1 508.3,432.1 509.2,432.1 510.2,432.1 511.2,432.1 512.2,432.1 513.2,432.1 514.1,432.1 515.1,432.1 516.1,432.1 517.1,432.1 518.1,432.1 519.0,432.1 520.0,432.1 521.0,432.1 522.0,432.1 523.0,432.1 523.9,432.1 524.9,432.1 525.9,432.1 526.9,432.1 527.9,432.1 528.8,432.1 529.8,432.1 530.8,432.1 531.8,432.1 532.8,432.1 533.7,432.1 534.7,432.1 535.7,432.1 536.7,432.1 537.7,432.1 538.6,432.1 539.6,432.1 540.6,432.1 541.6,432.1 542.6,432.1 543.5,432.1 544.5,432.1 545.5,432.1 546.5,432.1 547.5,432.1 548.4,432.1 549.4,432.1 550.4,432.1 551.4,432.1 552.4,432.1 553.3,432.1 554.3,432.1 555.3,432.1 556.3,432.1 557.3,432.1 558.2,432.1 559.2,432.1 560.2,432.1 561.2,432.1 562.2,432.1 563.1,432.1 564.1,432.1 565.1,432.1 566.1,432.1 567.1,432.1 568.0,432.1 569.0,432.1 570.0,432.1 571.0,432.1 572.0,432.1 572.9,432.1 573.9,432.1 574.9,432.1 575.9,432.1 576.9,432.1 577.8,432.1 578.8,432.1 579.8,432.1 580.8,432.1 581.8,432.1 582.7,432.1 583.7,432.1 584.7,432.1 585.7,432.1 586.7,432.1 587.6,432.1 588.6,432.1 589.6,432.1 590.6,432.1 591.6,432.1 592.5,432.1 593.5,432.1 594.5,432.1 595.5,432.1 596.5,432.1 597.4,432.1 598.4,432.1 599.4,432.1 600.4,432.1 601.4,432.1 602.3,432.1 603.3,432.1 604.3,432.1 605.3,432.1 606.3,432.1 607.2,432.1 608.2,432.1 609.2,432.1 610.2,432.1 611.2,432.1 612.1,432.1 613.1,432.1 614.1,432.1 615.1,432.1 616.1,432.1 617.0,432.1 618.0,432.1 619.0,432.1 620.0,432.1 621.0,432.1 621.9,432.1 622.9,432.1 623.9,432.1 624.9,432.1 625.9,432.1 626.8,432.1 627.8,432.1 628.8,432.1 629.8,432.1 630.8,432.1 631.7,432.1 632.7,432.1 633.7,432.1 634.7,432.1 635.7,432.1 636.6,432.1 637.6,432.1 638.6,432.1 639.6,432.1 640.6,432.1 641.5,432.1 642.5,432.1 643.5,432.1 644.5,432.1 645.5,432.1 646.4,432.1 647.4,432.1 648.4,432.1 649.4,432.1 650.4,432.1 651.3,432.1 652.3,432.1 653.3,432.1 654.3,432.1 655.3,432.1 656.2,432.1 657.2,431.8 658.2,431.7 659.2,431.5 660.2,431.3 661.1,431.3 662.1,431.2 663.1,431.0 664.1,431.0 665.1,431.0 666.0,430.9 667.0,431.0 668.0,431.0 669.0,430.9 670.0,431.0 670.9,431.0 671.9,431.0 672.9,431.1 673.9,431.2 674.9,431.2 675.8,431.3 676.8,431.4 677.8,431.4 678.8,431.5 679.8,431.6 680.7,431.6 681.7,431.7 682.7,431.8 683.7,431.8 684.7,431.9 685.6,432.0 686.6,432.0 687.6,432.1 688.6,432.2 689.6,432.2 690.5,432.3 691.5,432.3 692.5,432.4 693.5,432.4 694.5,432.5 695.4,432.5 696.4,432.6 697.4,432.6 698.4,432.7 699.4,432.7 700.3,432.7 701.3,432.7 702.3,432.7 703.3,432.7 704.3,432.7 705.2,432.7 706.2,432.7 707.2,432.7 708.2,432.7 709.2,432.7 710.1,432.7 711.1,432.7 712.1,432.7 713.1,432.7 714.1,432.6 715.0,432.6 716.0,432.6 717.0,432.6 718.0,432.6 719.0,432.5 719.9,432.5 720.9,432.5 721.9,432.5 722.9,432.5 723.9,432.4 724.8,432.4 725.8,432.4 726.8,432.4 727.8,432.4 728.8,432.4 729.7,432.3 730.7,432.3 731.7,432.3 732.7,432.3 733.7,432.3 734.6,432.3 735.6,432.3 736.6,432.3 737.6,432.2 738.6,432.2 739.5,432.2 740.5,432.2 741.5,432.2 742.5,432.2 743.5,432.2 744.4,432.2 745.4,432.2 746.4,432.2 747.4,432.1 748.4,432.2 749.3,432.1 750.3,432.1 751.3,432.1 752.3,432.1 753.3,432.1 754.2,432.1 755.2,432.1 756.2,432.1 757.2,432.1 758.2,432.1 759.1,432.1 760.1,432.1 761.1,432.1 762.1,432.1 763.1,432.1 764.0,432.1 765.0,432.1 766.0,432.1 767.0,432.1 768.0,432.1 768.9,432.1 769.9,432.1 770.9,432.1 771.9,432.1 772.9,432.1 773.8,432.1 774.8,432.1 775.8,432.1 776.8,432.1 777.8,432.1 778.7,432.1 779.7,432.1 780.7,432.1 781.7,432.1 782.7,432.1 783.6,432.1 784.6,432.1 785.6,432.1 786.6,432.1 787.6,432.1 788.5,432.1 789.5,432.1 790.5,432.1 791.5,432.1 792.5,432.1 793.4,432.1 794.4,432.1 795.4,432.1 796.4,432.1 797.4,432.1 798.3,432.1 799.3,432.1 800.3,432.1 801.3,432.1 802.3,432.1 803.2,432.1 804.2,432.1 805.2,432.1 806.2,432.1 807.2,432.1 808.1,432.1 809.1,432.1 810.1,432.1 811.1,432.1 812.1,432.1 813.0,432.1 814.0,432.1 815.0,432.1 816.0,432.1 817.0,432.1 817.9,432.1 818.9,432.1 819.9,432.1 820.9,432.1 821.9,432.1 822.8,432.1 823.8,432.1 824.8,432.1 825.8,432.1 826.8,432.1 827.7,432.1 828.7,432.1 829.7,432.1 830.7,432.1 831.7,432.1 832.6,432.1 833.6,432.1 834.6,432.1 835.6,432.1 836.6,432.1 837.5,432.1 838.5,432.1 839.5,432.1 840.5,432.1 841.5,432.1 842.4,432.1 843.4,432.1 844.4,432.1 845.4,432.1 846.4,432.1 847.3,432.1 848.3,432.1 849.3,432.1 850.3,432.1 851.3,432.1 852.2,432.1 853.2,432.1 854.2,432.1 855.2,432.1 856.2,432.1 857.1,432.1 858.1,432.1 859.1,432.1 860.1,432.1 861.1,432.1 862.0,432.1 863.0,432.1 864.0,432.1 865.0,432.1 866.0,432.1 866.9,432.1 867.9,432.1 868.9,432.1 869.9,432.1 870.9,432.1 871.8,432.1 872.8,432.1 873.8,432.1 874.8,432.1 875.8,432.1 876.7,432.1 877.7,432.1 878.7,432.1 879.7,432.1 880.7,432.1 881.6,432.1 882.6,432.1 883.6,432.1 884.6,432.1 885.6,432.1 886.5,432.1 887.5,432.1 888.5,432.1 889.5,432.1 890.5,432.1 891.4,432.1 892.4,432.1 893.4,432.1 894.4,432.1 895.4,432.1 896.3,432.1 897.3,432.1 898.3,432.1 899.3,432.1 900.3,432.1 901.2,432.0 902.2,431.9 903.2,431.7 904.2,431.4 905.2,431.4 906.1,431.3 907.1,431.1 908.1,431.1 909.1,431.0 910.1,430.9 911.0,431.0 912.0,431.0 913.0,430.9 914.0,431.0 915.0,431.0 915.9,431.0 916.9,431.1 917.9,431.1 918.9,431.1 919.9,431.2 920.8,431.3 921.8,431.3 922.8,431.4 923.8,431.5 924.8,431.5 925.7,431.6 926.7,431.7 927.7,431.7 928.7,431.8 929.7,431.9 930.6,431.9 931.6,432.0 932.6,432.1 933.6,432.1 934.6,432.2 935.5,432.3 936.5,432.3 937.5,432.4 938.5,432.4 939.5,432.5 940.4,432.5 941.4,432.6 942.4,432.6 943.4,432.7 944.4,432.7 945.3,432.7 946.3,432.7 947.3,432.7 948.3,432.7 949.3,432.7 950.2,432.7 951.2,432.7 952.2,432.7 953.2,432.7 954.2,432.7 955.1,432.7 956.1,432.7 957.1,432.7 958.1,432.6 959.1,432.6 960.0,432.6 961.0,432.6 962.0,432.6 963.0,432.6 964.0,432.5 964.9,432.5 965.9,432.5 966.9,432.5 967.9,432.5 968.9,432.4 969.8,432.4 970.8,432.4 971.8,432.4 972.8,432.4 973.8,432.4 974.7,432.3 975.7,432.3 976.7,432.3 977.7,432.3 978.7,432.3 979.6,432.3 980.6,432.3 981.6,432.2 982.6,432.2 983.6,432.2 984.5,432.2 985.5,432.2 986.5,432.2 987.5,432.2 988.5,432.2 989.4,432.2 990.4,432.2 991.4,432.2 992.4,432.2 993.4,432.1 994.3,432.1 995.3,432.1 996.3,432.1 997.3,432.1 998.3,432.1 999.2,432.1 1000.2,432.1 1001.2,432.1 1002.2,432.1 1003.2,432.1 1004.1,432.1 1005.1,432.1 1006.1,432.1 1007.1,432.1 1008.1,432.1 1009.0,432.1 1010.0,432.1 1011.0,432.1 1012.0,432.1 1013.0,432.1 1013.9,432.1 1014.9,432.1 1015.9,432.1 1016.9,432.1 1017.9,432.1 1018.8,432.1 1019.8,432.1 1020.8,432.1 1021.8,432.1 1022.8,432.1 1023.7,432.1 1024.7,432.1 1025.7,432.1 1026.7,432.1 1027.7,432.1 1028.6,432.1 1029.6,432.1 1030.6,432.1 1031.6,432.1 1032.6,432.1 1033.5,432.1 1034.5,432.1 1035.5,432.1 1036.5,432.1 1037.5,432.1 1038.4,432.1 1039.4,432.1 1040.4,432.1 1041.4,432.1 1042.4,432.1 1043.3,432.1 1044.3,432.1 1045.3,432.1 1046.3,432.1 1047.3,432.1 1048.2,432.1 1049.2,432.1 1050.2,432.1 1051.2,432.1 1052.2,432.1 1053.1,432.1 1054.1,432.1 1055.1,432.1 1056.1,432.1 1057.1,432.1 1058.0,432.1 1059.0,432.1 1060.0,432.1" fill="none" stroke="#3ec6e0" stroke-width="1.8" stroke-linecap="round" stroke-linejoin="round"/>
<text x="74.0" y="346.0" fill="#e6c35c" font-size="11" font-family="Noto Sans Thai, Sarabun, Tahoma, DejaVu Sans, sans-serif" font-weight="normal" font-style="normal" text-anchor="end">V</text>
<text x="74.0" y="362.0" fill="#3ec6e0" font-size="11" font-family="Noto Sans Thai, Sarabun, Tahoma, DejaVu Sans, sans-serif" font-weight="normal" font-style="normal" text-anchor="end">A</text>
<rect x="80.0" y="550.0" width="980.0" height="175.0" rx="6.0" fill="#0b121c" stroke="#2c4458" stroke-width="1.0"/>
<text x="80.0" y="542.0" fill="#d5e4f0" font-size="13" font-family="Noto Sans Thai, Sarabun, Tahoma, DejaVu Sans, sans-serif" font-weight="700" font-style="normal" text-anchor="start">10 µs/div   ริปเปิลสวิตช์ 67 kHz   CH1 100 mV/div  CH2 1 A/div</text>
<text x="1060.0" y="542.0" fill="#8fa3b5" font-size="12" font-family="Noto Sans Thai, Sarabun, Tahoma, DejaVu Sans, sans-serif" font-weight="normal" font-style="normal" text-anchor="end">ΔI_L=1.03 A   ΔV≈36 mV</text>
<polyline points="80.0,642.7 80.9,642.6 81.8,642.5 82.8,642.4 83.7,642.3 84.6,642.2 85.5,642.1 86.4,642.0 87.4,641.9 88.3,641.8 89.2,641.7 90.1,641.6 91.0,641.5 91.9,641.5 92.9,641.4 93.8,641.3 94.7,641.2 95.6,641.1 96.5,641.0 97.5,640.9 98.4,640.8 99.3,640.7 100.2,640.6 101.1,640.5 102.1,640.4 103.0,640.3 103.9,640.2 104.8,640.1 105.7,640.0 106.7,639.9 107.6,639.8 108.5,639.7 109.4,639.6 110.3,639.5 111.2,639.4 112.2,639.3 113.1,639.2 114.0,639.1 114.9,639.0 115.8,638.9 116.8,638.8 117.7,638.7 118.6,638.6 119.5,638.5 120.4,638.4 121.4,638.3 122.3,638.2 123.2,638.1 124.1,638.0 125.0,637.9 126.0,637.8 126.9,637.7 127.8,637.6 128.7,637.5 129.6,637.4 130.5,637.3 131.5,637.2 132.4,637.1 133.3,637.0 134.2,636.9 135.1,636.8 136.1,636.7 137.0,636.6 137.9,636.5 138.8,636.4 139.7,636.3 140.7,636.2 141.6,636.1 142.5,636.0 143.4,635.9 144.3,635.8 145.3,635.7 146.2,635.6 147.1,635.5 148.0,635.4 148.9,635.3 149.8,635.2 150.8,635.1 151.7,635.0 152.6,634.9 153.5,634.8 154.4,634.7 155.4,634.6 156.3,634.5 157.2,634.4 158.1,634.3 159.0,634.2 160.0,634.1 160.9,634.0 161.8,633.9 162.7,633.8 163.6,633.7 164.6,633.6 165.5,633.5 166.4,633.4 167.3,633.3 168.2,633.2 169.1,633.1 170.1,633.0 171.0,632.9 171.9,632.8 172.8,632.7 173.7,632.6 174.7,632.5 175.6,632.4 176.5,632.3 177.4,632.3 178.3,632.4 179.3,632.4 180.2,632.5 181.1,632.6 182.0,632.6 182.9,632.7 183.9,632.7 184.8,632.8 185.7,632.9 186.6,632.9 187.5,633.0 188.4,633.1 189.4,633.1 190.3,633.2 191.2,633.3 192.1,633.3 193.0,633.4 194.0,633.4 194.9,633.5 195.8,633.6 196.7,633.6 197.6,633.7 198.6,633.8 199.5,633.8 200.4,633.9 201.3,634.0 202.2,634.0 203.2,634.1 204.1,634.2 205.0,634.2 205.9,634.3 206.8,634.3 207.7,634.4 208.7,634.5 209.6,634.5 210.5,634.6 211.4,634.7 212.3,634.7 213.3,634.8 214.2,634.9 215.1,634.9 216.0,635.0 216.9,635.0 217.9,635.1 218.8,635.2 219.7,635.2 220.6,635.3 221.5,635.4 222.5,635.4 223.4,635.5 224.3,635.6 225.2,635.6 226.1,635.7 227.0,635.7 228.0,635.8 228.9,635.9 229.8,635.9 230.7,636.0 231.6,636.1 232.6,636.1 233.5,636.2 234.4,636.3 235.3,636.3 236.2,636.4 237.2,636.4 238.1,636.5 239.0,636.6 239.9,636.6 240.8,636.7 241.8,636.8 242.7,636.8 243.6,636.9 244.5,637.0 245.4,637.0 246.3,637.1 247.3,637.1 248.2,637.2 249.1,637.3 250.0,637.3 250.9,637.4 251.9,637.5 252.8,637.5 253.7,637.6 254.6,637.7 255.5,637.7 256.5,637.8 257.4,637.8 258.3,637.9 259.2,638.0 260.1,638.0 261.1,638.1 262.0,638.2 262.9,638.2 263.8,638.3 264.7,638.4 265.6,638.4 266.6,638.5 267.5,638.5 268.4,638.6 269.3,638.7 270.2,638.7 271.2,638.8 272.1,638.9 273.0,638.9 273.9,639.0 274.8,639.1 275.8,639.1 276.7,639.2 277.6,639.2 278.5,639.3 279.4,639.4 280.4,639.4 281.3,639.5 282.2,639.6 283.1,639.6 284.0,639.7 284.9,639.8 285.9,639.8 286.8,639.9 287.7,639.9 288.6,640.0 289.5,640.1 290.5,640.1 291.4,640.2 292.3,640.3 293.2,640.3 294.1,640.4 295.1,640.5 296.0,640.5 296.9,640.6 297.8,640.7 298.7,640.7 299.6,640.8 300.6,640.8 301.5,640.9 302.4,641.0 303.3,641.0 304.2,641.1 305.2,641.2 306.1,641.2 307.0,641.3 307.9,641.4 308.8,641.4 309.8,641.5 310.7,641.5 311.6,641.6 312.5,641.7 313.4,641.7 314.4,641.8 315.3,641.9 316.2,641.9 317.1,642.0 318.0,642.1 318.9,642.1 319.9,642.2 320.8,642.2 321.7,642.3 322.6,642.4 323.5,642.4 324.5,642.5 325.4,642.7 326.3,642.6 327.2,642.5 328.1,642.4 329.1,642.3 330.0,642.2 330.9,642.1 331.8,642.0 332.7,641.9 333.7,641.8 334.6,641.7 335.5,641.6 336.4,641.5 337.3,641.4 338.2,641.3 339.2,641.2 340.1,641.1 341.0,641.0 341.9,640.9 342.8,640.8 343.8,640.7 344.7,640.6 345.6,640.5 346.5,640.4 347.4,640.3 348.4,640.2 349.3,640.1 350.2,640.0 351.1,639.9 352.0,639.8 353.0,639.7 353.9,639.6 354.8,639.5 355.7,639.4 356.6,639.3 357.5,639.2 358.5,639.1 359.4,639.0 360.3,638.9 361.2,638.8 362.1,638.7 363.1,638.6 364.0,638.5 364.9,638.4 365.8,638.3 366.7,638.2 367.7,638.1 368.6,638.0 369.5,637.9 370.4,637.8 371.3,637.7 372.3,637.6 373.2,637.5 374.1,637.4 375.0,637.3 375.9,637.2 376.8,637.1 377.8,637.0 378.7,636.9 379.6,636.8 380.5,636.7 381.4,636.6 382.4,636.5 383.3,636.4 384.2,636.3 385.1,636.2 386.0,636.1 387.0,636.0 387.9,635.9 388.8,635.8 389.7,635.7 390.6,635.6 391.6,635.5 392.5,635.4 393.4,635.3 394.3,635.2 395.2,635.1 396.1,635.0 397.1,634.9 398.0,634.8 398.9,634.7 399.8,634.6 400.7,634.5 401.7,634.4 402.6,634.3 403.5,634.2 404.4,634.1 405.3,634.0 406.3,633.9 407.2,633.8 408.1,633.7 409.0,633.6 409.9,633.5 410.9,633.4 411.8,633.3 412.7,633.2 413.6,633.1 414.5,633.0 415.4,632.9 416.4,632.8 417.3,632.7 418.2,632.6 419.1,632.5 420.0,632.4 421.0,632.3 421.9,632.3 422.8,632.3 423.7,632.4 424.6,632.5 425.6,632.5 426.5,632.6 427.4,632.6 428.3,632.7 429.2,632.8 430.2,632.8 431.1,632.9 432.0,633.0 432.9,633.0 433.8,633.1 434.7,633.2 435.7,633.2 436.6,633.3 437.5,633.3 438.4,633.4 439.3,633.5 440.3,633.5 441.2,633.6 442.1,633.7 443.0,633.7 443.9,633.8 444.9,633.9 445.8,633.9 446.7,634.0 447.6,634.0 448.5,634.1 449.5,634.2 450.4,634.2 451.3,634.3 452.2,634.4 453.1,634.4 454.0,634.5 455.0,634.6 455.9,634.6 456.8,634.7 457.7,634.7 458.6,634.8 459.6,634.9 460.5,634.9 461.4,635.0 462.3,635.1 463.2,635.1 464.2,635.2 465.1,635.3 466.0,635.3 466.9,635.4 467.8,635.4 468.8,635.5 469.7,635.6 470.6,635.6 471.5,635.7 472.4,635.8 473.3,635.8 474.3,635.9 475.2,636.0 476.1,636.0 477.0,636.1 477.9,636.1 478.9,636.2 479.8,636.3 480.7,636.3 481.6,636.4 482.5,636.5 483.5,636.5 484.4,636.6 485.3,636.7 486.2,636.7 487.1,636.8 488.1,636.8 489.0,636.9 489.9,637.0 490.8,637.0 491.7,637.1 492.6,637.2 493.6,637.2 494.5,637.3 495.4,637.4 496.3,637.4 497.2,637.5 498.2,637.5 499.1,637.6 500.0,637.7 500.9,637.7 501.8,637.8 502.8,637.9 503.7,637.9 504.6,638.0 505.5,638.1 506.4,638.1 507.4,638.2 508.3,638.3 509.2,638.3 510.1,638.4 511.0,638.4 511.9,638.5 512.9,638.6 513.8,638.6 514.7,638.7 515.6,638.8 516.5,638.8 517.5,638.9 518.4,639.0 519.3,639.0 520.2,639.1 521.1,639.1 522.1,639.2 523.0,639.3 523.9,639.3 524.8,639.4 525.7,639.5 526.7,639.5 527.6,639.6 528.5,639.7 529.4,639.7 530.3,639.8 531.2,639.8 532.2,639.9 533.1,640.0 534.0,640.0 534.9,640.1 535.8,640.2 536.8,640.2 537.7,640.3 538.6,640.4 539.5,640.4 540.4,640.5 541.4,640.5 542.3,640.6 543.2,640.7 544.1,640.7 545.0,640.8 546.0,640.9 546.9,640.9 547.8,641.0 548.7,641.1 549.6,641.1 550.5,641.2 551.5,641.2 552.4,641.3 553.3,641.4 554.2,641.4 555.1,641.5 556.1,641.6 557.0,641.6 557.9,641.7 558.8,641.8 559.7,641.8 560.7,641.9 561.6,641.9 562.5,642.0 563.4,642.1 564.3,642.1 565.3,642.2 566.2,642.3 567.1,642.3 568.0,642.4 568.9,642.5 569.8,642.5 570.8,642.7 571.7,642.6 572.6,642.5 573.5,642.4 574.4,642.3 575.4,642.2 576.3,642.1 577.2,642.0 578.1,641.9 579.0,641.8 580.0,641.7 580.9,641.6 581.8,641.5 582.7,641.4 583.6,641.3 584.6,641.2 585.5,641.1 586.4,641.0 587.3,640.9 588.2,640.8 589.1,640.7 590.1,640.6 591.0,640.5 591.9,640.4 592.8,640.3 593.7,640.2 594.7,640.1 595.6,640.0 596.5,639.9 597.4,639.8 598.3,639.7 599.3,639.6 600.2,639.5 601.1,639.4 602.0,639.3 602.9,639.2 603.9,639.1 604.8,639.0 605.7,638.9 606.6,638.8 607.5,638.7 608.4,638.6 609.4,638.5 610.3,638.4 611.2,638.3 612.1,638.2 613.0,638.1 614.0,638.0 614.9,637.9 615.8,637.8 616.7,637.7 617.6,637.6 618.6,637.5 619.5,637.4 620.4,637.3 621.3,637.2 622.2,637.1 623.2,637.0 624.1,636.9 625.0,636.8 625.9,636.7 626.8,636.6 627.7,636.5 628.7,636.4 629.6,636.3 630.5,636.2 631.4,636.1 632.3,636.0 633.3,635.9 634.2,635.8 635.1,635.7 636.0,635.6 636.9,635.5 637.9,635.4 638.8,635.3 639.7,635.2 640.6,635.1 641.5,635.0 642.5,634.9 643.4,634.8 644.3,634.7 645.2,634.6 646.1,634.5 647.0,634.4 648.0,634.3 648.9,634.2 649.8,634.1 650.7,634.0 651.6,633.9 652.6,633.8 653.5,633.7 654.4,633.6 655.3,633.5 656.2,633.4 657.2,633.3 658.1,633.2 659.0,633.1 659.9,633.0 660.8,632.9 661.8,632.8 662.7,632.7 663.6,632.6 664.5,632.5 665.4,632.4 666.3,632.3 667.3,632.3 668.2,632.3 669.1,632.4 670.0,632.5 670.9,632.5 671.9,632.6 672.8,632.7 673.7,632.7 674.6,632.8 675.5,632.9 676.5,632.9 677.4,633.0 678.3,633.0 679.2,633.1 680.1,633.2 681.1,633.2 682.0,633.3 682.9,633.4 683.8,633.4 684.7,633.5 685.6,633.6 686.6,633.6 687.5,633.7 688.4,633.7 689.3,633.8 690.2,633.9 691.2,633.9 692.1,634.0 693.0,634.1 693.9,634.1 694.8,634.2 695.8,634.3 696.7,634.3 697.6,634.4 698.5,634.4 699.4,634.5 700.4,634.6 701.3,634.6 702.2,634.7 703.1,634.8 704.0,634.8 704.9,634.9 705.9,635.0 706.8,635.0 707.7,635.1 708.6,635.1 709.5,635.2 710.5,635.3 711.4,635.3 712.3,635.4 713.2,635.5 714.1,635.5 715.1,635.6 716.0,635.7 716.9,635.7 717.8,635.8 718.7,635.8 719.6,635.9 720.6,636.0 721.5,636.0 722.4,636.1 723.3,636.2 724.2,636.2 725.2,636.3 726.1,636.4 727.0,636.4 727.9,636.5 728.8,636.6 729.8,636.6 730.7,636.7 731.6,636.7 732.5,636.8 733.4,636.9 734.4,636.9 735.3,637.0 736.2,637.1 737.1,637.1 738.0,637.2 738.9,637.3 739.9,637.3 740.8,637.4 741.7,637.4 742.6,637.5 743.5,637.6 744.5,637.6 745.4,637.7 746.3,637.8 747.2,637.8 748.1,637.9 749.1,638.0 750.0,638.0 750.9,638.1 751.8,638.1 752.7,638.2 753.7,638.3 754.6,638.3 755.5,638.4 756.4,638.5 757.3,638.5 758.2,638.6 759.2,638.7 760.1,638.7 761.0,638.8 761.9,638.8 762.8,638.9 763.8,639.0 764.7,639.0 765.6,639.1 766.5,639.2 767.4,639.2 768.4,639.3 769.3,639.4 770.2,639.4 771.1,639.5 772.0,639.5 773.0,639.6 773.9,639.7 774.8,639.7 775.7,639.8 776.6,639.9 777.5,639.9 778.5,640.0 779.4,640.1 780.3,640.1 781.2,640.2 782.1,640.2 783.1,640.3 784.0,640.4 784.9,640.4 785.8,640.5 786.7,640.6 787.7,640.6 788.6,640.7 789.5,640.8 790.4,640.8 791.3,640.9 792.3,640.9 793.2,641.0 794.1,641.1 795.0,641.1 795.9,641.2 796.8,641.3 797.8,641.3 798.7,641.4 799.6,641.5 800.5,641.5 801.4,641.6 802.4,641.6 803.3,641.7 804.2,641.8 805.1,641.8 806.0,641.9 807.0,642.0 807.9,642.0 808.8,642.1 809.7,642.2 810.6,642.2 811.6,642.3 812.5,642.4 813.4,642.4 814.3,642.5 815.2,642.5 816.1,642.6 817.1,642.5 818.0,642.4 818.9,642.3 819.8,642.2 820.7,642.1 821.7,642.0 822.6,641.9 823.5,641.8 824.4,641.7 825.3,641.6 826.3,641.5 827.2,641.5 828.1,641.4 829.0,641.3 829.9,641.2 830.9,641.1 831.8,641.0 832.7,640.9 833.6,640.8 834.5,640.7 835.4,640.6 836.4,640.5 837.3,640.4 838.2,640.3 839.1,640.2 840.0,640.1 841.0,640.0 841.9,639.9 842.8,639.8 843.7,639.7 844.6,639.6 845.6,639.5 846.5,639.4 847.4,639.3 848.3,639.2 849.2,639.1 850.2,639.0 851.1,638.9 852.0,638.8 852.9,638.7 853.8,638.6 854.7,638.5 855.7,638.4 856.6,638.3 857.5,638.2 858.4,638.1 859.3,638.0 860.3,637.9 861.2,637.8 862.1,637.7 863.0,637.6 863.9,637.5 864.9,637.4 865.8,637.3 866.7,637.2 867.6,637.1 868.5,637.0 869.5,636.9 870.4,636.8 871.3,636.7 872.2,636.6 873.1,636.5 874.0,636.4 875.0,636.3 875.9,636.2 876.8,636.1 877.7,636.0 878.6,635.9 879.6,635.8 880.5,635.7 881.4,635.6 882.3,635.5 883.2,635.4 884.2,635.3 885.1,635.2 886.0,635.1 886.9,635.0 887.8,634.9 888.8,634.8 889.7,634.7 890.6,634.6 891.5,634.5 892.4,634.4 893.3,634.3 894.3,634.2 895.2,634.1 896.1,634.0 897.0,633.9 897.9,633.8 898.9,633.7 899.8,633.6 900.7,633.5 901.6,633.4 902.5,633.3 903.5,633.2 904.4,633.1 905.3,633.0 906.2,632.9 907.1,632.8 908.1,632.7 909.0,632.6 909.9,632.5 910.8,632.4 911.7,632.3 912.6,632.3 913.6,632.4 914.5,632.4 915.4,632.5 916.3,632.6 917.2,632.6 918.2,632.7 919.1,632.7 920.0,632.8 920.9,632.9 921.8,632.9 922.8,633.0 923.7,633.1 924.6,633.1 925.5,633.2 926.4,633.3 927.4,633.3 928.3,633.4 929.2,633.4 930.1,633.5 931.0,633.6 931.9,633.6 932.9,633.7 933.8,633.8 934.7,633.8 935.6,633.9 936.5,634.0 937.5,634.0 938.4,634.1 939.3,634.2 940.2,634.2 941.1,634.3 942.1,634.3 943.0,634.4 943.9,634.5 944.8,634.5 945.7,634.6 946.7,634.7 947.6,634.7 948.5,634.8 949.4,634.9 950.3,634.9 951.2,635.0 952.2,635.0 953.1,635.1 954.0,635.2 954.9,635.2 955.8,635.3 956.8,635.4 957.7,635.4 958.6,635.5 959.5,635.6 960.4,635.6 961.4,635.7 962.3,635.7 963.2,635.8 964.1,635.9 965.0,635.9 966.0,636.0 966.9,636.1 967.8,636.1 968.7,636.2 969.6,636.3 970.5,636.3 971.5,636.4 972.4,636.4 973.3,636.5 974.2,636.6 975.1,636.6 976.1,636.7 977.0,636.8 977.9,636.8 978.8,636.9 979.7,637.0 980.7,637.0 981.6,637.1 982.5,637.1 983.4,637.2 984.3,637.3 985.3,637.3 986.2,637.4 987.1,637.5 988.0,637.5 988.9,637.6 989.8,637.7 990.8,637.7 991.7,637.8 992.6,637.8 993.5,637.9 994.4,638.0 995.4,638.0 996.3,638.1 997.2,638.2 998.1,638.2 999.0,638.3 1000.0,638.4 1000.9,638.4 1001.8,638.5 1002.7,638.5 1003.6,638.6 1004.6,638.7 1005.5,638.7 1006.4,638.8 1007.3,638.9 1008.2,638.9 1009.1,639.0 1010.1,639.1 1011.0,639.1 1011.9,639.2 1012.8,639.2 1013.7,639.3 1014.7,639.4 1015.6,639.4 1016.5,639.5 1017.4,639.6 1018.3,639.6 1019.3,639.7 1020.2,639.8 1021.1,639.8 1022.0,639.9 1022.9,639.9 1023.9,640.0 1024.8,640.1 1025.7,640.1 1026.6,640.2 1027.5,640.3 1028.4,640.3 1029.4,640.4 1030.3,640.5 1031.2,640.5 1032.1,640.6 1033.0,640.7 1034.0,640.7 1034.9,640.8 1035.8,640.8 1036.7,640.9 1037.6,641.0 1038.6,641.0 1039.5,641.1 1040.4,641.2 1041.3,641.2 1042.2,641.3 1043.2,641.4 1044.1,641.4 1045.0,641.5 1045.9,641.5 1046.8,641.6 1047.7,641.7 1048.7,641.7 1049.6,641.8 1050.5,641.9 1051.4,641.9 1052.3,642.0 1053.3,642.1 1054.2,642.1 1055.1,642.2 1056.0,642.2 1056.9,642.3 1057.9,642.4 1058.8,642.4 1059.7,642.5" fill="none" stroke="#e6c35c" stroke-width="1.8" stroke-linecap="round" stroke-linejoin="round"/>
<polyline points="80.0,667.5 80.9,666.9 81.8,666.3 82.8,665.8 83.7,665.2 84.6,664.6 85.5,664.1 86.4,663.5 87.4,662.9 88.3,662.4 89.2,661.8 90.1,661.2 91.0,660.6 91.9,660.1 92.9,659.5 93.8,658.9 94.7,658.4 95.6,657.8 96.5,657.2 97.5,656.7 98.4,656.1 99.3,655.5 100.2,654.9 101.1,654.4 102.1,653.8 103.0,653.2 103.9,652.7 104.8,652.1 105.7,651.5 106.7,651.0 107.6,650.4 108.5,649.8 109.4,649.2 110.3,648.7 111.2,648.1 112.2,647.5 113.1,647.0 114.0,646.4 114.9,645.8 115.8,645.3 116.8,644.7 117.7,644.1 118.6,643.5 119.5,643.0 120.4,642.4 121.4,641.8 122.3,641.3 123.2,640.7 124.1,640.1 125.0,639.6 126.0,639.0 126.9,638.4 127.8,637.9 128.7,637.3 129.6,636.7 130.5,636.1 131.5,635.6 132.4,635.0 133.3,634.4 134.2,633.9 135.1,633.3 136.1,632.7 137.0,632.2 137.9,631.6 138.8,631.0 139.7,630.4 140.7,629.9 141.6,629.3 142.5,628.7 143.4,628.2 144.3,627.6 145.3,627.0 146.2,626.5 147.1,625.9 148.0,625.3 148.9,624.7 149.8,624.2 150.8,623.6 151.7,623.0 152.6,622.5 153.5,621.9 154.4,621.3 155.4,620.8 156.3,620.2 157.2,619.6 158.1,619.0 159.0,618.5 160.0,617.9 160.9,617.3 161.8,616.8 162.7,616.2 163.6,615.6 164.6,615.1 165.5,614.5 166.4,613.9 167.3,613.4 168.2,612.8 169.1,612.2 170.1,611.6 171.0,611.1 171.9,610.5 172.8,609.9 173.7,609.4 174.7,608.8 175.6,608.2 176.5,607.7 177.4,607.8 178.3,608.2 179.3,608.5 180.2,608.9 181.1,609.3 182.0,609.6 182.9,610.0 183.9,610.3 184.8,610.7 185.7,611.1 186.6,611.4 187.5,611.8 188.4,612.2 189.4,612.5 190.3,612.9 191.2,613.3 192.1,613.6 193.0,614.0 194.0,614.4 194.9,614.7 195.8,615.1 196.7,615.4 197.6,615.8 198.6,616.2 199.5,616.5 200.4,616.9 201.3,617.3 202.2,617.6 203.2,618.0 204.1,618.4 205.0,618.7 205.9,619.1 206.8,619.5 207.7,619.8 208.7,620.2 209.6,620.5 210.5,620.9 211.4,621.3 212.3,621.6 213.3,622.0 214.2,622.4 215.1,622.7 216.0,623.1 216.9,623.5 217.9,623.8 218.8,624.2 219.7,624.6 220.6,624.9 221.5,625.3 222.5,625.6 223.4,626.0 224.3,626.4 225.2,626.7 226.1,627.1 227.0,627.5 228.0,627.8 228.9,628.2 229.8,628.6 230.7,628.9 231.6,629.3 232.6,629.6 233.5,630.0 234.4,630.4 235.3,630.7 236.2,631.1 237.2,631.5 238.1,631.8 239.0,632.2 239.9,632.6 240.8,632.9 241.8,633.3 242.7,633.7 243.6,634.0 244.5,634.4 245.4,634.7 246.3,635.1 247.3,635.5 248.2,635.8 249.1,636.2 250.0,636.6 250.9,636.9 251.9,637.3 252.8,637.7 253.7,638.0 254.6,638.4 255.5,638.8 256.5,639.1 257.4,639.5 258.3,639.8 259.2,640.2 260.1,640.6 261.1,640.9 262.0,641.3 262.9,641.7 263.8,642.0 264.7,642.4 265.6,642.8 266.6,643.1 267.5,643.5 268.4,643.9 269.3,644.2 270.2,644.6 271.2,644.9 272.1,645.3 273.0,645.7 273.9,646.0 274.8,646.4 275.8,646.8 276.7,647.1 277.6,647.5 278.5,647.9 279.4,648.2 280.4,648.6 281.3,648.9 282.2,649.3 283.1,649.7 284.0,650.0 284.9,650.4 285.9,650.8 286.8,651.1 287.7,651.5 288.6,651.9 289.5,652.2 290.5,652.6 291.4,653.0 292.3,653.3 293.2,653.7 294.1,654.0 295.1,654.4 296.0,654.8 296.9,655.1 297.8,655.5 298.7,655.9 299.6,656.2 300.6,656.6 301.5,657.0 302.4,657.3 303.3,657.7 304.2,658.1 305.2,658.4 306.1,658.8 307.0,659.1 307.9,659.5 308.8,659.9 309.8,660.2 310.7,660.6 311.6,661.0 312.5,661.3 313.4,661.7 314.4,662.1 315.3,662.4 316.2,662.8 317.1,663.2 318.0,663.5 318.9,663.9 319.9,664.2 320.8,664.6 321.7,665.0 322.6,665.3 323.5,665.7 324.5,666.1 325.4,667.3 326.3,666.7 327.2,666.2 328.1,665.6 329.1,665.0 330.0,664.4 330.9,663.9 331.8,663.3 332.7,662.7 333.7,662.2 334.6,661.6 335.5,661.0 336.4,660.5 337.3,659.9 338.2,659.3 339.2,658.7 340.1,658.2 341.0,657.6 341.9,657.0 342.8,656.5 343.8,655.9 344.7,655.3 345.6,654.8 346.5,654.2 347.4,653.6 348.4,653.0 349.3,652.5 350.2,651.9 351.1,651.3 352.0,650.8 353.0,650.2 353.9,649.6 354.8,649.1 355.7,648.5 356.6,647.9 357.5,647.3 358.5,646.8 359.4,646.2 360.3,645.6 361.2,645.1 362.1,644.5 363.1,643.9 364.0,643.4 364.9,642.8 365.8,642.2 366.7,641.6 367.7,641.1 368.6,640.5 369.5,639.9 370.4,639.4 371.3,638.8 372.3,638.2 373.2,637.7 374.1,637.1 375.0,636.5 375.9,636.0 376.8,635.4 377.8,634.8 378.7,634.2 379.6,633.7 380.5,633.1 381.4,632.5 382.4,632.0 383.3,631.4 384.2,630.8 385.1,630.3 386.0,629.7 387.0,629.1 387.9,628.5 388.8,628.0 389.7,627.4 390.6,626.8 391.6,626.3 392.5,625.7 393.4,625.1 394.3,624.6 395.2,624.0 396.1,623.4 397.1,622.8 398.0,622.3 398.9,621.7 399.8,621.1 400.7,620.6 401.7,620.0 402.6,619.4 403.5,618.9 404.4,618.3 405.3,617.7 406.3,617.1 407.2,616.6 408.1,616.0 409.0,615.4 409.9,614.9 410.9,614.3 411.8,613.7 412.7,613.2 413.6,612.6 414.5,612.0 415.4,611.5 416.4,610.9 417.3,610.3 418.2,609.7 419.1,609.2 420.0,608.6 421.0,608.0 421.9,607.6 422.8,607.9 423.7,608.3 424.6,608.6 425.6,609.0 426.5,609.4 427.4,609.7 428.3,610.1 429.2,610.5 430.2,610.8 431.1,611.2 432.0,611.6 432.9,611.9 433.8,612.3 434.7,612.7 435.7,613.0 436.6,613.4 437.5,613.7 438.4,614.1 439.3,614.5 440.3,614.8 441.2,615.2 442.1,615.6 443.0,615.9 443.9,616.3 444.9,616.7 445.8,617.0 446.7,617.4 447.6,617.8 448.5,618.1 449.5,618.5 450.4,618.8 451.3,619.2 452.2,619.6 453.1,619.9 454.0,620.3 455.0,620.7 455.9,621.0 456.8,621.4 457.7,621.8 458.6,622.1 459.6,622.5 460.5,622.9 461.4,623.2 462.3,623.6 463.2,623.9 464.2,624.3 465.1,624.7 466.0,625.0 466.9,625.4 467.8,625.8 468.8,626.1 469.7,626.5 470.6,626.9 471.5,627.2 472.4,627.6 473.3,627.9 474.3,628.3 475.2,628.7 476.1,629.0 477.0,629.4 477.9,629.8 478.9,630.1 479.8,630.5 480.7,630.9 481.6,631.2 482.5,631.6 483.5,632.0 484.4,632.3 485.3,632.7 486.2,633.0 487.1,633.4 488.1,633.8 489.0,634.1 489.9,634.5 490.8,634.9 491.7,635.2 492.6,635.6 493.6,636.0 494.5,636.3 495.4,636.7 496.3,637.1 497.2,637.4 498.2,637.8 499.1,638.1 500.0,638.5 500.9,638.9 501.8,639.2 502.8,639.6 503.7,640.0 504.6,640.3 505.5,640.7 506.4,641.1 507.4,641.4 508.3,641.8 509.2,642.2 510.1,642.5 511.0,642.9 511.9,643.2 512.9,643.6 513.8,644.0 514.7,644.3 515.6,644.7 516.5,645.1 517.5,645.4 518.4,645.8 519.3,646.2 520.2,646.5 521.1,646.9 522.1,647.3 523.0,647.6 523.9,648.0 524.8,648.3 525.7,648.7 526.7,649.1 527.6,649.4 528.5,649.8 529.4,650.2 530.3,650.5 531.2,650.9 532.2,651.3 533.1,651.6 534.0,652.0 534.9,652.3 535.8,652.7 536.8,653.1 537.7,653.4 538.6,653.8 539.5,654.2 540.4,654.5 541.4,654.9 542.3,655.3 543.2,655.6 544.1,656.0 545.0,656.4 546.0,656.7 546.9,657.1 547.8,657.4 548.7,657.8 549.6,658.2 550.5,658.5 551.5,658.9 552.4,659.3 553.3,659.6 554.2,660.0 555.1,660.4 556.1,660.7 557.0,661.1 557.9,661.5 558.8,661.8 559.7,662.2 560.7,662.5 561.6,662.9 562.5,663.3 563.4,663.6 564.3,664.0 565.3,664.4 566.2,664.7 567.1,665.1 568.0,665.5 568.9,665.8 569.8,666.2 570.8,667.1 571.7,666.5 572.6,666.0 573.5,665.4 574.4,664.8 575.4,664.3 576.3,663.7 577.2,663.1 578.1,662.5 579.0,662.0 580.0,661.4 580.9,660.8 581.8,660.3 582.7,659.7 583.6,659.1 584.6,658.6 585.5,658.0 586.4,657.4 587.3,656.8 588.2,656.3 589.1,655.7 590.1,655.1 591.0,654.6 591.9,654.0 592.8,653.4 593.7,652.9 594.7,652.3 595.6,651.7 596.5,651.1 597.4,650.6 598.3,650.0 599.3,649.4 600.2,648.9 601.1,648.3 602.0,647.7 602.9,647.2 603.9,646.6 604.8,646.0 605.7,645.4 606.6,644.9 607.5,644.3 608.4,643.7 609.4,643.2 610.3,642.6 611.2,642.0 612.1,641.5 613.0,640.9 614.0,640.3 614.9,639.8 615.8,639.2 616.7,638.6 617.6,638.0 618.6,637.5 619.5,636.9 620.4,636.3 621.3,635.8 622.2,635.2 623.2,634.6 624.1,634.1 625.0,633.5 625.9,632.9 626.8,632.3 627.7,631.8 628.7,631.2 629.6,630.6 630.5,630.1 631.4,629.5 632.3,628.9 633.3,628.4 634.2,627.8 635.1,627.2 636.0,626.6 636.9,626.1 637.9,625.5 638.8,624.9 639.7,624.4 640.6,623.8 641.5,623.2 642.5,622.7 643.4,622.1 644.3,621.5 645.2,620.9 646.1,620.4 647.0,619.8 648.0,619.2 648.9,618.7 649.8,618.1 650.7,617.5 651.6,617.0 652.6,616.4 653.5,615.8 654.4,615.2 655.3,614.7 656.2,614.1 657.2,613.5 658.1,613.0 659.0,612.4 659.9,611.8 660.8,611.3 661.8,610.7 662.7,610.1 663.6,609.6 664.5,609.0 665.4,608.4 666.3,607.8 667.3,607.7 668.2,608.0 669.1,608.4 670.0,608.8 670.9,609.1 671.9,609.5 672.8,609.9 673.7,610.2 674.6,610.6 675.5,611.0 676.5,611.3 677.4,611.7 678.3,612.0 679.2,612.4 680.1,612.8 681.1,613.1 682.0,613.5 682.9,613.9 683.8,614.2 684.7,614.6 685.6,615.0 686.6,615.3 687.5,615.7 688.4,616.1 689.3,616.4 690.2,616.8 691.2,617.1 692.1,617.5 693.0,617.9 693.9,618.2 694.8,618.6 695.8,619.0 696.7,619.3 697.6,619.7 698.5,620.1 699.4,620.4 700.4,620.8 701.3,621.2 702.2,621.5 703.1,621.9 704.0,622.2 704.9,622.6 705.9,623.0 706.8,623.3 707.7,623.7 708.6,624.1 709.5,624.4 710.5,624.8 711.4,625.2 712.3,625.5 713.2,625.9 714.1,626.3 715.1,626.6 716.0,627.0 716.9,627.3 717.8,627.7 718.7,628.1 719.6,628.4 720.6,628.8 721.5,629.2 722.4,629.5 723.3,629.9 724.2,630.3 725.2,630.6 726.1,631.0 727.0,631.3 727.9,631.7 728.8,632.1 729.8,632.4 730.7,632.8 731.6,633.2 732.5,633.5 733.4,633.9 734.4,634.3 735.3,634.6 736.2,635.0 737.1,635.4 738.0,635.7 738.9,636.1 739.9,636.4 740.8,636.8 741.7,637.2 742.6,637.5 743.5,637.9 744.5,638.3 745.4,638.6 746.3,639.0 747.2,639.4 748.1,639.7 749.1,640.1 750.0,640.5 750.9,640.8 751.8,641.2 752.7,641.5 753.7,641.9 754.6,642.3 755.5,642.6 756.4,643.0 757.3,643.4 758.2,643.7 759.2,644.1 760.1,644.5 761.0,644.8 761.9,645.2 762.8,645.6 763.8,645.9 764.7,646.3 765.6,646.6 766.5,647.0 767.4,647.4 768.4,647.7 769.3,648.1 770.2,648.5 771.1,648.8 772.0,649.2 773.0,649.6 773.9,649.9 774.8,650.3 775.7,650.6 776.6,651.0 777.5,651.4 778.5,651.7 779.4,652.1 780.3,652.5 781.2,652.8 782.1,653.2 783.1,653.6 784.0,653.9 784.9,654.3 785.8,654.7 786.7,655.0 787.7,655.4 788.6,655.7 789.5,656.1 790.4,656.5 791.3,656.8 792.3,657.2 793.2,657.6 794.1,657.9 795.0,658.3 795.9,658.7 796.8,659.0 797.8,659.4 798.7,659.8 799.6,660.1 800.5,660.5 801.4,660.8 802.4,661.2 803.3,661.6 804.2,661.9 805.1,662.3 806.0,662.7 807.0,663.0 807.9,663.4 808.8,663.8 809.7,664.1 810.6,664.5 811.6,664.9 812.5,665.2 813.4,665.6 814.3,665.9 815.2,666.3 816.1,666.9 817.1,666.3 818.0,665.8 818.9,665.2 819.8,664.6 820.7,664.1 821.7,663.5 822.6,662.9 823.5,662.4 824.4,661.8 825.3,661.2 826.3,660.6 827.2,660.1 828.1,659.5 829.0,658.9 829.9,658.4 830.9,657.8 831.8,657.2 832.7,656.7 833.6,656.1 834.5,655.5 835.4,654.9 836.4,654.4 837.3,653.8 838.2,653.2 839.1,652.7 840.0,652.1 841.0,651.5 841.9,651.0 842.8,650.4 843.7,649.8 844.6,649.2 845.6,648.7 846.5,648.1 847.4,647.5 848.3,647.0 849.2,646.4 850.2,645.8 851.1,645.3 852.0,644.7 852.9,644.1 853.8,643.5 854.7,643.0 855.7,642.4 856.6,641.8 857.5,641.3 858.4,640.7 859.3,640.1 860.3,639.6 861.2,639.0 862.1,638.4 863.0,637.9 863.9,637.3 864.9,636.7 865.8,636.1 866.7,635.6 867.6,635.0 868.5,634.4 869.5,633.9 870.4,633.3 871.3,632.7 872.2,632.2 873.1,631.6 874.0,631.0 875.0,630.4 875.9,629.9 876.8,629.3 877.7,628.7 878.6,628.2 879.6,627.6 880.5,627.0 881.4,626.5 882.3,625.9 883.2,625.3 884.2,624.7 885.1,624.2 886.0,623.6 886.9,623.0 887.8,622.5 888.8,621.9 889.7,621.3 890.6,620.8 891.5,620.2 892.4,619.6 893.3,619.0 894.3,618.5 895.2,617.9 896.1,617.3 897.0,616.8 897.9,616.2 898.9,615.6 899.8,615.1 900.7,614.5 901.6,613.9 902.5,613.4 903.5,612.8 904.4,612.2 905.3,611.6 906.2,611.1 907.1,610.5 908.1,609.9 909.0,609.4 909.9,608.8 910.8,608.2 911.7,607.7 912.6,607.8 913.6,608.2 914.5,608.5 915.4,608.9 916.3,609.3 917.2,609.6 918.2,610.0 919.1,610.3 920.0,610.7 920.9,611.1 921.8,611.4 922.8,611.8 923.7,612.2 924.6,612.5 925.5,612.9 926.4,613.3 927.4,613.6 928.3,614.0 929.2,614.4 930.1,614.7 931.0,615.1 931.9,615.4 932.9,615.8 933.8,616.2 934.7,616.5 935.6,616.9 936.5,617.3 937.5,617.6 938.4,618.0 939.3,618.4 940.2,618.7 941.1,619.1 942.1,619.5 943.0,619.8 943.9,620.2 944.8,620.5 945.7,620.9 946.7,621.3 947.6,621.6 948.5,622.0 949.4,622.4 950.3,622.7 951.2,623.1 952.2,623.5 953.1,623.8 954.0,624.2 954.9,624.6 955.8,624.9 956.8,625.3 957.7,625.6 958.6,626.0 959.5,626.4 960.4,626.7 961.4,627.1 962.3,627.5 963.2,627.8 964.1,628.2 965.0,628.6 966.0,628.9 966.9,629.3 967.8,629.6 968.7,630.0 969.6,630.4 970.5,630.7 971.5,631.1 972.4,631.5 973.3,631.8 974.2,632.2 975.1,632.6 976.1,632.9 977.0,633.3 977.9,633.7 978.8,634.0 979.7,634.4 980.7,634.7 981.6,635.1 982.5,635.5 983.4,635.8 984.3,636.2 985.3,636.6 986.2,636.9 987.1,637.3 988.0,637.7 988.9,638.0 989.8,638.4 990.8,638.8 991.7,639.1 992.6,639.5 993.5,639.8 994.4,640.2 995.4,640.6 996.3,640.9 997.2,641.3 998.1,641.7 999.0,642.0 1000.0,642.4 1000.9,642.8 1001.8,643.1 1002.7,643.5 1003.6,643.9 1004.6,644.2 1005.5,644.6 1006.4,644.9 1007.3,645.3 1008.2,645.7 1009.1,646.0 1010.1,646.4 1011.0,646.8 1011.9,647.1 1012.8,647.5 1013.7,647.9 1014.7,648.2 1015.6,648.6 1016.5,648.9 1017.4,649.3 1018.3,649.7 1019.3,650.0 1020.2,650.4 1021.1,650.8 1022.0,651.1 1022.9,651.5 1023.9,651.9 1024.8,652.2 1025.7,652.6 1026.6,653.0 1027.5,653.3 1028.4,653.7 1029.4,654.0 1030.3,654.4 1031.2,654.8 1032.1,655.1 1033.0,655.5 1034.0,655.9 1034.9,656.2 1035.8,656.6 1036.7,657.0 1037.6,657.3 1038.6,657.7 1039.5,658.1 1040.4,658.4 1041.3,658.8 1042.2,659.1 1043.2,659.5 1044.1,659.9 1045.0,660.2 1045.9,660.6 1046.8,661.0 1047.7,661.3 1048.7,661.7 1049.6,662.1 1050.5,662.4 1051.4,662.8 1052.3,663.2 1053.3,663.5 1054.2,663.9 1055.1,664.2 1056.0,664.6 1056.9,665.0 1057.9,665.3 1058.8,665.7 1059.7,666.1" fill="none" stroke="#3ec6e0" stroke-width="1.8" stroke-linecap="round" stroke-linejoin="round"/>
<text x="74.0" y="566.0" fill="#e6c35c" font-size="11" font-family="Noto Sans Thai, Sarabun, Tahoma, DejaVu Sans, sans-serif" font-weight="normal" font-style="normal" text-anchor="end">V</text>
<text x="74.0" y="582.0" fill="#3ec6e0" font-size="11" font-family="Noto Sans Thai, Sarabun, Tahoma, DejaVu Sans, sans-serif" font-weight="normal" font-style="normal" text-anchor="end">A</text>
<rect x="80.0" y="780.0" width="980.0" height="140.0" rx="6.0" fill="#0b121c" stroke="#2c4458" stroke-width="1.0"/>
<text x="100.0" y="812.0" fill="#d5e4f0" font-size="14" font-family="Noto Sans Thai, Sarabun, Tahoma, DejaVu Sans, sans-serif" font-weight="700" font-style="normal" text-anchor="start">เทียบกับสโคป 110 V + 1:1.3 ที่เคยจับ</text>
<text x="100.0" y="838.0" fill="#9bb0c2" font-size="13" font-family="Noto Sans Thai, Sarabun, Tahoma, DejaVu Sans, sans-serif" font-weight="normal" font-style="normal" text-anchor="start">Vout ที่ 50 V/div จะดูเป็นเส้นตรงทั้งคู่  (แบตยึดโวลต์)</text>
<text x="100.0" y="860.0" fill="#9bb0c2" font-size="13" font-family="Noto Sans Thai, Sarabun, Tahoma, DejaVu Sans, sans-serif" font-weight="normal" font-style="normal" text-anchor="start">Iout ที่ 5 ms/div:  110 V+1.3  แกว่งแรง 100 Hz   ·   240 V+48:21  เบากว่า  และเรียบเกือบหมดถ้าชดเชย Vin</text>
<text x="100.0" y="882.0" fill="#9bb0c2" font-size="13" font-family="Noto Sans Thai, Sarabun, Tahoma, DejaVu Sans, sans-serif" font-weight="normal" font-style="normal" text-anchor="start">Iout ที่ 10 µs/div:  สามเหลี่ยม ~1 A รอบ 5 A  ที่ 67 kHz  — นี่คือของ L 520 µH ถือว่าปกติ</text>
</svg>
